# Blender v2.79 (sub 7) OBJ File: 'NeoGearrepurposedikr.blend'
# www.blender.org
mtllib StarDustRedBlueExGearStepA.mtl
o Collision_meshId0_name.005
v -436.330597 0.084377 -135.631149
v 100.705276 0.084330 445.688873
v 231.002045 0.084377 -394.231018
v 335.625366 0.084377 -310.057800
v 57.802330 0.084377 -453.253937
v -247.066574 0.084377 -384.367340
v -351.905670 0.084318 291.448853
v -82.235718 0.084330 449.462982
v 430.364410 0.084353 -153.513306
v 456.405457 0.084353 -21.782482
v -76.449272 0.084377 -450.483948
v -348.128754 0.084377 -295.949799
v -375.470978 0.084377 -129.318008
v -456.915375 0.084353 -2.937835
v -370.751251 0.084353 142.284714
v -421.430634 0.084353 176.568527
v -397.002838 0.084353 9.484184
v -298.025696 0.084342 262.454193
v -192.553207 0.084342 347.310974
v 225.913315 0.084330 397.169189
v 363.627899 0.084330 276.685638
v 308.597961 0.084330 249.937943
v 397.056305 0.084353 -6.899428
v 376.304871 0.084318 126.870941
v -59.598839 0.084318 392.619080
v 75.742783 0.084342 389.826172
v 206.715042 0.084342 339.072815
v 190.287888 0.084377 -348.556885
v 62.153625 0.084377 -392.222656
v -204.503296 0.084377 -340.411316
v 428.355133 0.084353 159.035034
v -310.218353 0.084377 -247.923279
v -209.338562 0.084342 406.149384
v 299.728058 0.084377 -260.508240
v 369.817169 0.084353 -144.695389
v -78.279007 0.084377 -389.324799
v -436.330597 -66.573456 -135.631149
v 100.705276 -66.573502 445.688873
v 231.002045 -66.573456 -394.231018
v 335.625366 -66.573456 -310.057800
v 57.802330 -66.573456 -453.253937
v -247.066574 -66.573456 -384.367340
v -351.905670 -66.573509 291.448853
v -82.235718 -66.573502 449.462982
v 430.364410 -66.573479 -153.513306
v 456.405457 -66.573479 -21.782486
v -76.449272 -66.573456 -450.483948
v -348.128754 -66.573456 -295.949799
v -375.470978 -66.573456 -129.318008
v -456.915375 -66.573479 -2.937839
v -370.751251 -66.573479 142.284714
v -421.430634 -66.573479 176.568527
v -397.002838 -66.573479 9.484180
v -298.025696 -66.573486 262.454193
v -192.553207 -66.573486 347.310974
v 225.913315 -66.573502 397.169189
v 363.627899 -66.573502 276.685638
v 308.597961 -66.573502 249.937943
v 397.056305 -66.573479 -6.899432
v 376.304871 -66.573509 126.870941
v -59.598839 -66.573509 392.619080
v 75.742783 -66.573486 389.826172
v 206.715042 -66.573486 339.072815
v 190.287888 -66.573456 -348.556885
v 62.153625 -66.573456 -392.222656
v -204.503296 -66.573456 -340.411316
v 428.355133 -66.573479 159.035034
v -310.218353 -66.573456 -247.923279
v -209.338562 -66.573486 406.149384
v 299.728058 -66.573456 -260.508240
v 369.817169 -66.573479 -144.695389
v -78.279007 -66.573456 -389.324799
v 0.000011 -66.573479 0.000075
v 0.000020 0.084355 0.000061
vt 0.000000 0.000000
vt 0.000000 0.000000
vt 0.000000 0.000000
vt 0.000000 0.000000
vt 0.000000 0.000000
vt 0.000000 0.000000
vt 0.000000 0.000000
vt 0.000000 0.000000
vt 0.000000 0.000000
vt 0.000000 0.000000
vt 0.000000 0.000000
vt 0.000000 0.000000
vt 0.000000 0.000000
vt 0.000000 0.000000
vt 0.000000 0.000000
vt 0.000000 0.000000
vt 0.000000 0.000000
vt 0.000000 0.000000
vt 0.000000 0.000000
vt 0.000000 0.000000
vt 0.000000 0.000000
vt 0.000000 0.000000
vt 0.000000 0.000000
vt 0.000000 0.000000
vt 0.000000 0.000000
vt 0.000000 0.000000
vt 0.000000 0.000000
vt 0.000000 0.000000
vt 0.000000 0.000000
vt 0.000000 0.000000
vt 0.000000 0.000000
vt 0.000000 0.000000
vt 0.000000 0.000000
vt 0.000000 0.000000
vt 0.000000 0.000000
vt 0.000000 0.000000
vt 0.000000 0.000000
vt 0.000000 0.000000
vt 0.000000 0.000000
vt 0.000000 0.000000
vt 0.000000 0.000000
vt 0.000000 0.000000
vt 0.000000 0.000000
vt 0.000000 0.000000
vt 0.000000 0.000000
vt 0.000000 0.000000
vt 0.000000 0.000000
vt 0.000000 0.000000
vt 0.000000 0.000000
vt 0.000000 0.000000
vt 0.000000 0.000000
vt 0.000000 0.000000
vt 0.000000 0.000000
vt 0.000000 0.000000
vt 0.000000 0.000000
vt 0.000000 0.000000
vt 0.000000 0.000000
vt 0.000000 0.000000
vt 0.000000 0.000000
vt 0.000000 0.000000
vt 0.000000 0.000000
vt 0.000000 0.000000
vt 0.000000 0.000000
vt 0.000000 0.000000
vt 0.000000 0.000000
vt 0.000000 0.000000
vt 0.000000 0.000000
vt 0.000000 0.000000
vt 0.000000 0.000000
vt 0.000000 0.000000
vt 0.000000 0.000000
vt 0.000000 0.000000
vt 0.000000 0.000000
vt 0.000000 0.000000
vn 0.0000 1.0000 0.0000
vn -0.0000 -1.0000 -0.0000
vn 0.3613 0.0000 0.9324
vn 0.7184 0.0000 -0.6956
vn -0.9882 0.0000 -0.1533
vn 0.8098 0.0000 0.5867
vn 0.6268 0.0000 -0.7791
vn 0.9290 0.0000 0.3700
vn -0.7465 0.0000 -0.6654
vn 0.1032 0.0000 -0.9947
vn -0.3613 0.0000 -0.9324
vn -0.6268 0.0000 0.7791
vn -0.8555 0.0000 0.5178
vn 0.8762 0.0000 0.4820
vn 0.9975 0.0000 -0.0711
vn -0.7849 0.0000 0.6196
vn 0.9495 0.0000 -0.3138
vn 0.6585 0.0000 0.7526
vn -0.8762 0.0000 -0.4820
vn -0.9616 0.0000 -0.2743
vn 0.4739 0.0000 0.8806
vn -0.0206 0.0000 -0.9998
vn 0.9810 0.0000 -0.1939
vn 0.0206 0.0000 0.9998
vn 0.3226 0.0000 -0.9465
vn -0.9996 0.0000 -0.0299
vn -0.2030 -0.0000 0.9792
vn -0.4372 0.0000 0.8994
vn 0.5257 0.0000 -0.8507
vn -0.9130 0.0000 0.4080
vn -0.5603 0.0000 -0.8283
vn -0.9810 0.0000 0.1939
vn -0.1441 0.0000 -0.9896
vn 0.9882 0.0000 0.1533
vn 0.2432 0.0000 0.9700
vn -0.6585 0.0000 -0.7526
vn -0.3226 0.0000 0.9465
vn 0.8555 0.0000 -0.5178
usemtl None
s off
f 29/1/1 36/2/1 74/3/1
f 63/4/2 38/5/2 62/6/2
f 20/7/3 38/5/3 56/8/3
f 6/9/4 66/10/4 42/11/4
f 14/12/5 37/13/5 50/14/5
f 4/15/6 70/16/6 40/17/6
f 3/18/7 40/17/7 39/19/7
f 25/20/8 44/21/8 61/22/8
f 28/23/9 39/19/9 64/24/9
f 1/25/10 49/26/10 37/13/10
f 30/27/11 72/28/11 66/10/11
f 19/29/12 54/30/12 55/31/12
f 7/32/13 52/33/13 43/34/13
f 31/35/14 57/36/14 67/37/14
f 5/38/15 65/39/15 41/40/15
f 32/41/16 48/42/16 68/43/16
f 27/44/17 56/8/17 63/4/17
f 22/45/18 63/4/18 58/46/18
f 13/47/19 68/43/19 49/26/19
f 33/48/20 55/31/20 69/49/20
f 18/50/21 43/34/21 54/30/21
f 11/51/22 41/40/22 47/52/22
f 9/53/23 46/54/23 45/55/23
f 26/56/24 61/22/24 62/6/24
f 29/1/25 64/24/25 65/39/25
f 36/2/26 47/52/26 72/28/26
f 17/57/27 50/14/27 53/58/27
f 21/59/28 58/46/28 57/36/28
f 24/60/29 67/37/29 60/61/29
f 2/62/30 62/6/30 38/5/30
f 16/63/31 51/64/31 52/33/31
f 15/65/32 53/58/32 51/64/32
f 35/66/33 45/55/33 71/67/33
f 23/68/34 60/61/34 59/69/34
f 10/70/35 59/69/35 46/54/35
f 12/71/36 42/11/36 48/42/36
f 8/72/37 69/49/37 44/21/37
f 34/73/38 71/67/38 70/16/38
f 30/27/1 6/9/1 12/71/1
f 30/27/1 12/71/1 32/41/1
f 5/38/1 11/51/1 36/2/1
f 24/60/1 23/68/1 74/3/1
f 13/47/1 1/25/1 17/57/1
f 1/25/1 14/12/1 17/57/1
f 17/57/1 15/65/1 74/3/1
f 29/1/1 5/38/1 36/2/1
f 4/15/1 3/18/1 34/73/1
f 3/18/1 28/23/1 34/73/1
f 36/2/1 30/27/1 74/3/1
f 25/20/1 26/56/1 74/3/1
f 32/41/1 13/47/1 74/3/1
f 19/29/1 25/20/1 74/3/1
f 15/65/1 16/63/1 7/32/1
f 15/65/1 7/32/1 18/50/1
f 22/45/1 24/60/1 74/3/1
f 23/68/1 35/66/1 74/3/1
f 10/70/1 9/53/1 23/68/1
f 9/53/1 35/66/1 23/68/1
f 34/73/1 28/23/1 74/3/1
f 13/47/1 17/57/1 74/3/1
f 19/29/1 33/48/1 8/72/1
f 19/29/1 8/72/1 25/20/1
f 35/66/1 34/73/1 74/3/1
f 21/59/1 31/35/1 22/45/1
f 31/35/1 24/60/1 22/45/1
f 18/50/1 19/29/1 74/3/1
f 28/23/1 29/1/1 74/3/1
f 27/44/1 22/45/1 74/3/1
f 26/56/1 2/62/1 27/44/1
f 2/62/1 20/7/1 27/44/1
f 72/28/2 47/52/2 41/40/2
f 72/28/2 41/40/2 65/39/2
f 48/42/2 42/11/2 66/10/2
f 55/31/2 54/30/2 73/74/2
f 61/22/2 55/31/2 73/74/2
f 64/24/2 39/19/2 70/16/2
f 39/19/2 40/17/2 70/16/2
f 60/61/2 58/46/2 73/74/2
f 68/43/2 48/42/2 66/10/2
f 50/14/2 37/13/2 53/58/2
f 37/13/2 49/26/2 53/58/2
f 68/43/2 66/10/2 73/74/2
f 53/58/2 49/26/2 73/74/2
f 71/67/2 59/69/2 73/74/2
f 65/39/2 64/24/2 73/74/2
f 63/4/2 62/6/2 73/74/2
f 71/67/2 45/55/2 59/69/2
f 45/55/2 46/54/2 59/69/2
f 43/34/2 52/33/2 51/64/2
f 66/10/2 72/28/2 73/74/2
f 49/26/2 68/43/2 73/74/2
f 62/6/2 61/22/2 73/74/2
f 60/61/2 67/37/2 58/46/2
f 67/37/2 57/36/2 58/46/2
f 72/28/2 65/39/2 73/74/2
f 54/30/2 43/34/2 51/64/2
f 44/21/2 69/49/2 55/31/2
f 64/24/2 70/16/2 73/74/2
f 70/16/2 71/67/2 73/74/2
f 51/64/2 53/58/2 73/74/2
f 63/4/2 56/8/2 38/5/2
f 44/21/2 55/31/2 61/22/2
f 58/46/2 63/4/2 73/74/2
f 54/30/2 51/64/2 73/74/2
f 59/69/2 60/61/2 73/74/2
f 15/65/1 18/50/1 74/3/1
f 30/27/1 32/41/1 74/3/1
f 26/56/1 27/44/1 74/3/1
f 20/7/3 2/62/3 38/5/3
f 6/9/4 30/27/4 66/10/4
f 14/12/5 1/25/5 37/13/5
f 4/15/6 34/73/6 70/16/6
f 3/18/7 4/15/7 40/17/7
f 25/20/8 8/72/8 44/21/8
f 28/23/9 3/18/9 39/19/9
f 1/25/10 13/47/10 49/26/10
f 30/27/11 36/2/11 72/28/11
f 19/29/12 18/50/12 54/30/12
f 7/32/13 16/63/13 52/33/13
f 31/35/14 21/59/14 57/36/14
f 5/38/15 29/1/15 65/39/15
f 32/41/16 12/71/16 48/42/16
f 27/44/17 20/7/17 56/8/17
f 22/45/18 27/44/18 63/4/18
f 13/47/19 32/41/19 68/43/19
f 33/48/20 19/29/20 55/31/20
f 18/50/21 7/32/21 43/34/21
f 11/51/22 5/38/22 41/40/22
f 9/53/23 10/70/23 46/54/23
f 26/56/24 25/20/24 61/22/24
f 29/1/25 28/23/25 64/24/25
f 36/2/26 11/51/26 47/52/26
f 17/57/27 14/12/27 50/14/27
f 21/59/28 22/45/28 58/46/28
f 24/60/29 31/35/29 67/37/29
f 2/62/30 26/56/30 62/6/30
f 16/63/31 15/65/31 51/64/31
f 15/65/32 17/57/32 53/58/32
f 35/66/33 9/53/33 45/55/33
f 23/68/34 24/60/34 60/61/34
f 10/70/35 23/68/35 59/69/35
f 12/71/36 6/9/36 42/11/36
f 8/72/37 33/48/37 69/49/37
f 34/73/38 35/66/38 71/67/38
