# Blender v2.79 (sub 7) OBJ File: 'SandGlidemew.blend'
# www.blender.org
mtllib SandGlideStartingStep.mtl
o Plane.004_Plane.051
v -277.882843 323.565826 -277.882843
v -277.882843 323.565826 277.882843
v 277.882843 323.565826 277.882843
v 277.882843 323.565826 -277.882843
vn 0.0000 1.0000 0.0000
usemtl SAND
s off
f 3//1 1//1 2//1
f 3//1 4//1 1//1
o Plane.003_Plane.050
v -350.748566 375.282776 350.748566
v 350.748566 375.282776 350.748566
v -350.748566 375.282776 -350.748566
v 350.748566 375.282776 -350.748566
v -277.882843 369.886688 -277.882843
v -277.882843 369.886688 277.882843
v 277.882843 369.886688 277.882843
v 277.882843 369.886688 -277.882843
v -277.882843 323.565826 -277.882843
v -277.882843 323.565826 277.882843
v 277.882843 323.565826 277.882843
v 277.882843 323.565826 -277.882843
v -350.748566 238.278656 350.748566
v 350.748566 238.278656 350.748566
v -350.748566 238.278656 -350.748566
v 350.748566 238.278656 -350.748566
v -342.757477 218.718903 342.757477
v 342.757477 218.718903 342.757477
v -342.757477 218.718903 -342.757477
v 342.757477 218.718903 -342.757477
v -342.757477 -2104.573730 342.757477
v 342.757477 -2104.573730 342.757477
v -342.757477 -2104.573730 -342.757477
v 342.757477 -2104.573730 -342.757477
vn 0.0000 0.0000 1.0000
vn 0.0739 0.9973 0.0000
vn 0.0000 0.9973 -0.0739
vn -0.0739 0.9973 0.0000
vn 0.0000 0.9973 0.0739
vn 0.0000 0.0000 -1.0000
vn -1.0000 0.0000 0.0000
vn 1.0000 0.0000 0.0000
vn 0.9257 -0.3782 0.0000
vn -0.9257 -0.3782 0.0000
vn 0.0000 -0.3782 -0.9257
vn 0.0000 -0.3782 0.9257
usemtl STONE
s off
f 9//2 16//2 12//2
f 9//3 5//3 10//3
f 10//4 6//4 11//4
f 11//5 8//5 12//5
f 12//6 7//6 9//6
f 11//7 14//7 10//7
f 12//8 15//8 11//8
f 10//9 13//9 9//9
f 8//7 19//7 7//7
f 5//2 18//2 6//2
f 6//9 20//9 8//9
f 7//8 17//8 5//8
f 18//10 24//10 20//10
f 19//11 21//11 17//11
f 20//12 23//12 19//12
f 17//13 22//13 18//13
f 24//7 27//7 23//7
f 21//2 26//2 22//2
f 22//9 28//9 24//9
f 23//8 25//8 21//8
f 9//2 13//2 16//2
f 9//3 7//3 5//3
f 10//4 5//4 6//4
f 11//5 6//5 8//5
f 12//6 8//6 7//6
f 11//7 15//7 14//7
f 12//8 16//8 15//8
f 10//9 14//9 13//9
f 8//7 20//7 19//7
f 5//2 17//2 18//2
f 6//9 18//9 20//9
f 7//8 19//8 17//8
f 18//10 22//10 24//10
f 19//11 23//11 21//11
f 20//12 24//12 23//12
f 17//13 21//13 22//13
f 24//7 28//7 27//7
f 21//2 25//2 26//2
f 22//9 26//9 28//9
f 23//8 27//8 25//8
