# Blender v2.79 (sub 7) OBJ File: 'HOTFences.blend'
# www.blender.org
mtllib YoshiHighlandsFence.mtl
o Plane
v -11.370621 -34.682117 106.531464
v 11.958023 -34.682117 106.531464
v -11.370621 -34.682117 -107.118881
v 11.958023 -34.682117 -107.118881
v -11.370621 16.110332 106.531464
v 11.958023 16.110332 106.531464
v -11.370621 16.110332 -107.118881
v 11.958023 16.110332 -107.118881
vn 0.0000 -1.0000 0.0000
vn 0.0000 1.0000 0.0000
vn 1.0000 0.0000 0.0000
vn -1.0000 0.0000 0.0000
vn 0.0000 0.0000 -1.0000
vn 0.0000 0.0000 1.0000
usemtl WOOD
s off
f 3//1 2//1 1//1
f 6//2 7//2 5//2
f 4//3 6//3 2//3
f 1//4 7//4 3//4
f 3//5 8//5 4//5
f 2//6 5//6 1//6
f 3//1 4//1 2//1
f 6//2 8//2 7//2
f 4//3 8//3 6//3
f 1//4 5//4 7//4
f 3//5 7//5 8//5
f 2//6 6//6 5//6
