# Blender v2.79 (sub 7) OBJ File: 'ToyBossForHackioTHISISTHEREALONE.blend'
# www.blender.org
mtllib MachineBossPlanet.mtl
o BossPlanet_Collision_BossPlanetCollision
v 1355.140137 1007.199097 1355.140259
v -1355.140259 1007.199097 -1355.140259
v 1218.240356 997.128967 -1218.240234
v -1218.240234 997.128967 -1218.240234
v -1218.240234 997.128967 1218.240356
v 1218.240356 997.128967 1218.240356
v -1442.660767 -1026.130005 1442.660767
v 0.000061 -1026.127686 0.000061
v 1442.660767 -1026.130005 1442.660767
v -1442.660767 -1026.130005 -1442.660889
v 1442.660767 -1026.130005 -1442.660889
v -1455.343628 999.580017 1455.343750
v 1455.343750 999.580017 1455.343750
v -1455.343628 999.580017 -1455.343750
v 1455.343750 999.580017 -1455.343750
v -1355.140259 1007.199097 1355.140259
v 1355.140137 1007.199097 -1355.140259
vn 0.0275 0.9992 -0.0275
vn -0.0367 0.9987 -0.0367
vn -0.0275 0.9992 -0.0275
vn -0.0275 0.9992 0.0275
vn 0.0275 0.9992 0.0275
vn 0.0367 0.9987 -0.0367
vn 0.7071 -0.0089 -0.7071
vn -0.7071 -0.0089 -0.7071
vn 0.0000 -1.0000 0.0000
vn -0.0380 0.9986 -0.0380
vn 0.0380 0.9986 -0.0380
vn 0.0380 0.9986 0.0380
vn -0.0380 0.9986 0.0380
vn -0.7071 -0.0089 0.7071
vn 0.7071 -0.0089 0.7071
vn -0.0367 0.9987 0.0367
vn 0.0367 0.9987 0.0367
usemtl Col_ToyFloor
s 1
f 5//1 1//2 6//3
f 1//2 3//4 6//3
f 4//5 16//6 5//1
f 15//7 10//8 14//8
f 8//9 10//9 11//9
f 14//10 17//11 15//11
f 8//9 9//9 7//9
f 9//9 8//9 11//9
f 13//12 16//13 12//13
f 15//11 1//12 13//12
f 8//9 7//9 10//9
f 6//3 4//5 5//1
f 7//14 14//8 10//8
f 9//15 12//14 7//14
f 11//7 13//15 9//15
f 12//13 2//10 14//10
f 17//16 4//5 3//4
f 5//1 16//6 1//2
f 1//2 17//16 3//4
f 4//5 2//17 16//6
f 15//7 11//7 10//8
f 14//10 2//10 17//11
f 13//12 1//12 16//13
f 15//11 17//11 1//12
f 6//3 3//4 4//5
f 7//14 12//14 14//8
f 9//15 13//15 12//14
f 11//7 15//7 13//15
f 12//13 16//13 2//10
f 17//16 2//17 4//5
