# Blender v2.79 (sub 7) OBJ File: 'MovingPlatformBuoyBowlForMod2024HiHackio.blend'
# www.blender.org
mtllib BuoyBowlMovingPartsA.mtl
o FloatyLandPlanet.001_Circle.006
v -200.389282 -152.280472 315.447021
v -279.422852 -152.280502 54.023800
v -305.936401 -152.280548 -217.794586
v 174.597290 -152.280487 153.005859
v 121.801270 -152.280518 -21.629919
v 104.089600 -152.280548 -203.209839
v 174.597290 88.921539 153.005814
v 104.089600 88.921486 -203.209885
v -279.422852 88.921524 54.023762
v -200.389282 88.921570 315.446991
v -305.936401 88.921478 -217.794632
v 121.801270 88.921516 -21.629957
vt 0.500001 -0.529511
vt 1.269255 1.313526
vt 0.484039 1.236190
vt -0.301178 1.313527
vt -0.675440 -0.413740
vt -0.212185 1.139526
vt -1.545730 1.581166
vt -1.545731 1.139525
vt 2.605446 1.139529
vt 1.271899 1.581167
vt 1.271900 1.139528
vt -2.287772 1.581166
vt -2.287774 1.139524
vt 0.529857 1.139527
vt -0.212185 1.581166
vt 3.347489 1.139530
vt 2.605443 1.581167
vt 0.529856 1.581167
vt 1.675440 -0.413741
vt 3.347486 1.581167
vn -0.7140 -0.6857 0.1413
vn 0.5557 -0.5847 -0.5911
vn 0.6706 -0.7298 -0.1327
vn 0.7367 -0.5837 0.3416
vn -0.3452 -0.5715 0.7444
vn -0.5983 -0.5707 -0.5625
vn 0.6850 -0.0000 -0.7286
vn -0.4207 0.0000 0.9072
vn 0.9810 -0.0000 -0.1942
vn -0.7286 -0.0000 -0.6850
vn 0.9072 0.0000 0.4207
vn -0.9810 0.0000 0.1942
usemtl m3akasabiwall_v
s 1
f 2/1/1 6/2/2 5/3/3
f 2/1/1 4/4/4 1/5/5
f 3/6/6 8/7/7 6/8/2
f 4/9/4 10/10/8 1/11/5
f 6/8/2 12/12/9 5/13/3
f 2/14/1 11/15/10 3/6/6
f 5/16/3 7/17/11 4/9/4
f 1/11/5 9/18/12 2/14/1
f 2/1/1 3/19/6 6/2/2
f 2/1/1 5/3/3 4/4/4
f 3/6/6 11/15/10 8/7/7
f 4/9/4 7/17/11 10/10/8
f 6/8/2 8/7/7 12/12/9
f 2/14/1 9/18/12 11/15/10
f 5/16/3 12/20/9 7/17/11
f 1/11/5 10/10/8 9/18/12
o FloatyLandPlanet.000_Circle.004
v 252.681152 -42.125374 -43.337029
v 258.543823 -12.789919 -14.593351
v 258.543823 6.892332 -14.593354
v 252.681030 36.227776 -43.337029
v 46.786133 -12.788692 31.332247
v 46.786133 6.893560 31.332243
v 36.989868 -42.124149 -16.696648
v 40.923462 -42.124146 2.588569
v 36.989868 36.229000 -16.696661
v 40.923462 36.229004 2.588556
v 31.127197 6.893547 -45.440338
v 31.127197 -12.788704 -45.440334
v 248.747681 -42.125378 -62.622246
v 242.884888 -12.789932 -91.365906
v 242.884888 6.892319 -91.365906
v 248.747559 36.227772 -62.622246
vt -0.891512 -1.613460
vt -0.505800 2.597902
vt -0.891485 2.600786
vt 3.090178 -1.643235
vt 2.704431 2.573892
vt 2.704484 -1.640351
vt 1.891512 -1.634272
vt 1.505792 2.582857
vt 1.505819 -1.631387
vt -0.505818 -1.616345
vt 0.307154 2.591821
vt -1.704438 2.606866
vt -1.704484 -1.607381
vt 1.891477 2.579972
vt 0.692847 -1.625308
vt 0.692839 2.588937
vt 0.307153 -1.622424
vt 3.090116 2.571007
vn -0.1957 -0.3837 -0.9025
vn -0.1959 0.3816 -0.9033
vn -0.1959 -0.3816 -0.9033
vn -0.0806 -0.9249 -0.3715
vn 0.0806 -0.9249 0.3715
vn 0.0817 -0.9228 0.3765
vn 0.1959 -0.3816 0.9033
vn 0.1957 0.3837 0.9025
vn 0.1959 0.3816 0.9033
vn -0.1957 0.3837 -0.9025
vn -0.0817 0.9228 -0.3765
vn -0.0817 -0.9228 -0.3765
vn 0.1957 -0.3837 0.9025
vn 0.0817 0.9228 0.3765
vn 0.0806 0.9249 0.3715
vn -0.0806 0.9249 -0.3715
usemtl m5cain_v
s 1
f 24/21/13 27/22/14 26/23/15
f 19/24/16 13/25/17 20/26/18
f 17/27/19 15/28/20 18/29/21
f 23/30/22 28/31/23 27/22/14
f 24/21/13 25/32/24 19/33/16
f 20/26/18 14/34/25 17/27/19
f 22/35/26 15/28/20 16/36/27
f 21/37/28 16/36/27 28/31/23
f 24/21/13 23/30/22 27/22/14
f 19/24/16 25/38/24 13/25/17
f 17/27/19 14/34/25 15/28/20
f 23/30/22 21/37/28 28/31/23
f 24/21/13 26/23/15 25/32/24
f 20/26/18 13/25/17 14/34/25
f 22/35/26 18/29/21 15/28/20
f 21/37/28 22/35/26 16/36/27
o FloatyLandPlanet.003_Circle.003
v 174.597290 88.921539 153.005814
v 104.089600 88.921486 -203.209885
v -279.422852 88.921524 54.023762
v -200.389282 88.921570 315.446991
v -305.936401 88.921478 -217.794632
v 121.801270 88.921516 -21.629957
vt 0.134578 -0.020591
vt 0.499750 0.811473
vt -0.030380 0.717869
vt 0.857524 -0.018067
vt 1.029941 0.721228
vt 0.495939 -0.017062
vn -0.0000 1.0000 -0.0000
usemtl m4azukiwall_v
s 1
f 29/39/29 31/40/29 32/41/29
f 31/40/29 30/42/29 33/43/29
f 29/39/29 34/44/29 31/40/29
f 31/40/29 34/44/29 30/42/29
