#KCL dumped with Hack.io.KCL version 1.0.0.0
#https://github.com/SuperHackio/Hack.io
o movelimit.obj
v 1149.780000 3527.640000 -1148.690000
v 1149.780000 3300.000000 -1148.690000
v 1499.929000 3300.000000 -622.941900
v 1499.929000 3300.000000 -622.941500
v 1499.929000 3527.640000 -622.941600
v -1084.450000 3527.640000 -1487.640000
v -1084.450000 3300.000000 -1487.640000
v -766.347900 3300.000000 -1850.120000
v -766.347900 3527.640000 -1850.120000
v -1268.710000 3527.640000 -1170.960000
v -1268.710000 3300.000000 -1170.960000
v -1084.452000 3300.000000 -1487.640000
v -1268.708000 3527.640000 -1170.959000
v -1084.450000 3299.999000 -1487.640000
v 1475.840000 3300.000000 283.355000
v 1411.439000 3300.000000 552.820300
v 1411.439000 3527.639000 552.820300
v 1411.438000 3527.640000 552.821800
v 1475.840000 3527.640000 283.355000
v -840.057000 3527.640000 -918.657000
v -840.057000 3300.000000 -918.657000
v -1268.710000 3300.000000 -1170.959000
v -840.054600 3527.640000 -918.656200
v -1268.710000 3299.999000 -1170.960000
v 1499.930000 3527.640000 -622.938000
v 1499.930000 3300.000000 -622.938000
v 1499.740000 3300.000000 -467.202900
v 1499.740000 3300.000000 -467.203100
v 1499.740000 3527.640000 -467.203100
v 1060.070000 3527.640000 1060.070000
v 1060.070000 3300.000000 1060.070000
v 844.278300 3300.000000 1247.009000
v 844.277800 3300.000000 1247.009000
v 844.277800 3527.640000 1247.009000
v 1243.250000 3527.640000 845.710000
v 1243.250000 3300.000000 845.710000
v 1060.069000 3300.000000 1060.071000
v 1243.250000 3527.640000 845.709600
v 0.000894 3527.640000 -2002.560000
v 0.000894 3300.000000 -2002.560000
v 766.353700 3300.000000 -1850.115000
v 766.348800 3300.001000 -1850.116000
v 766.348800 3527.640000 -1850.116000
v -766.346000 3527.640000 -1850.120000
v -766.346000 3300.000000 -1850.120000
v 0.006775 3300.000000 -2002.565000
v -766.355700 3527.640000 -1850.114000
v 0.000894 3299.999000 -2002.560000
v 766.347000 3527.640000 -1850.120000
v 766.347000 3300.000000 -1850.120000
v 703.652300 3300.000000 -1416.016000
v 703.652800 3300.002000 -1416.020000
v 703.652800 3527.640000 -1416.020000
v 1499.740000 3527.640000 -467.203000
v 1499.740000 3300.000000 -467.203000
v 1499.170000 3300.000000 0.003571
v 1499.170000 3300.002000 -0.000366
v 1499.170000 3527.640000 -0.000366
v 1499.171000 3527.637000 0.000702
v 1499.171000 3300.000000 0.000732
v 1499.171000 3527.640000 -0.002838
v 1411.440000 3527.640000 552.821000
v 1411.440000 3300.000000 552.821000
v 1243.249000 3300.000000 845.710900
v 1411.441000 3527.640000 552.818800
v 1243.250000 3299.999000 845.710000
v 1888.230000 3100.000000 -574.759000
v 2011.830000 3100.000000 43.394350
v 2011.830000 3300.000000 43.394290
v 2011.831000 3300.000000 43.396060
v 1888.230000 3300.000000 -574.759000
v 2011.830000 3100.000000 43.394400
v 1499.171000 3100.000000 0.002312
v 1499.171000 3300.001000 0.002319
v 1499.175000 3300.000000 0.002594
v 2011.830000 3300.000000 43.394400
v 1499.741000 3100.000000 -467.203400
v 1499.741000 3300.000000 -467.203600
v 1499.741000 3100.000000 -467.203600
vn -0.83231 0.00000 0.55432
vn 0.75162 0.00000 0.65960
vn 0.86434 0.00000 0.50291
vn -0.97261 0.00000 -0.23245
vn 0.50725 0.00000 -0.86180
vn -1.00000 0.00000 -0.00122
vn -0.65477 0.00000 -0.75583
vn -0.76023 0.00000 -0.64965
vn -0.19510 0.00000 0.98078
vn 0.19510 0.00000 0.98078
vn -0.98973 0.00000 -0.14294
vn -0.99663 0.00000 -0.08206
vn -0.86719 0.00000 -0.49798
vn -0.98059 0.00000 0.19607
vn 0.08434 0.00000 -0.99644
vn 0.26682 0.00000 0.96375
usemtl m0 | 255 | Default | Default | Default | 0
s off
f 1//1 2//1 3//1
f 1//1 4//1 5//1
f 6//2 7//2 8//2
f 6//2 8//2 9//2
f 10//3 11//3 12//3
f 6//3 13//3 14//3
f 15//4 16//4 17//4
f 15//4 18//4 19//4
f 20//5 21//5 22//5
f 10//5 23//5 24//5
f 25//6 26//6 27//6
f 25//6 28//6 29//6
f 30//7 31//7 32//7
f 30//7 33//7 34//7
f 35//8 36//8 37//8
f 30//8 38//8 31//8
f 39//9 40//9 41//9
f 39//9 42//9 43//9
f 44//10 45//10 46//10
f 39//10 47//10 48//10
f 49//11 50//11 51//11
f 49//11 52//11 53//11
f 54//6 55//6 56//6
f 54//6 57//6 58//6
f 15//12 59//12 60//12
f 15//12 19//12 61//12
f 62//13 63//13 64//13
f 35//13 65//13 66//13
f 67//14 68//14 69//14
f 67//14 70//14 71//14
f 72//15 73//15 74//15
f 72//15 75//15 76//15
f 67//16 71//16 77//16
f 71//16 78//16 79//16
