# Blender v2.79 (sub 7) OBJ File: ''
# www.blender.org
mtllib HellWaterfallStoneB.mtl
o mesh-38.000_meshId38_name.002
v 386.542480 133.522461 75.710449
v 289.042480 -291.477539 86.210449
v 257.542480 105.522461 -140.289551
v 120.042480 -75.477539 -262.789551
v 42.042480 -242.477539 -277.789551
v 165.042480 -375.977539 73.210449
v 41.042480 -464.477539 104.710449
v 48.042480 -375.477539 25.710449
v -30.957520 -395.477539 28.210449
v -57.957520 -333.977539 -209.289551
v -195.457520 -192.477539 -266.289551
v -283.457520 -93.477539 -195.789551
v -297.457520 -37.477539 -280.289551
v -316.457520 24.022461 -210.789551
v -224.457520 200.022461 234.210449
v -354.457520 200.022461 -11.789551
v 171.042480 380.022461 232.710449
v 197.542480 361.022461 52.710449
v -50.957520 129.022461 -239.789551
v -61.457520 341.522461 -44.289551
v 216.042480 268.022461 290.210449
v 241.042480 207.022461 321.710449
v 3.542480 253.522461 281.210449
v 84.542480 203.522461 369.710449
v -80.457520 200.022461 354.710449
v -188.457520 178.522461 -242.789551
v 12.542480 24.022461 -294.789551
v 259.042480 -268.477539 275.710449
v 185.042480 -304.477539 -107.289551
v -284.957520 -232.477539 -176.789551
v -194.957520 -308.477539 -97.789551
v -201.457520 -169.977539 -341.789551
v -78.457520 304.522461 191.710449
v -190.957520 244.522461 225.710449
v 91.542480 -349.977539 -21.789551
v 170.042480 -328.977539 75.210449
v 157.042480 -312.977539 188.710449
v 335.042480 -109.977539 321.710449
v 360.542480 -184.977539 268.210449
v -261.457520 309.022461 -52.789551
v -246.957520 160.022461 -203.289551
v -266.457520 200.522461 -142.789551
v 365.542480 138.522461 321.710449
v 147.042480 -360.977539 186.710449
v 451.042480 203.522461 251.710449
vt 0.438965 0.074707
vt 0.294922 0.050781
vt 0.310059 0.031738
vt 0.650879 0.877930
vt 0.762207 0.824707
vt 0.696777 0.910645
vt 0.585938 0.766602
vt 0.736328 0.743164
vt 0.732422 0.662598
vt 0.577637 0.647461
vt 0.718262 0.552246
vt 0.615723 0.542969
vt 0.779297 0.532715
vt 0.375488 0.787109
vt 0.451660 0.767578
vt 0.440918 0.837402
vt 0.379883 0.738281
vt 0.331543 0.740234
vt 0.406738 0.708984
vt 0.314941 0.594238
vt 0.376465 0.552246
vt 0.292480 0.477539
vt 0.593750 0.339844
vt 0.533203 0.382813
vt 0.508301 0.328125
vt 0.628418 0.391602
vt 0.666016 0.349121
vt 0.749512 0.344238
vt 0.801270 0.081543
vt 0.773926 0.076172
vt 0.773926 0.001953
vt 0.773926 0.227051
vt 0.840820 0.251953
vt 0.773926 0.307129
vt 0.889160 0.867676
vt 0.985840 0.745605
vt 0.997559 0.856445
vt 0.846680 0.759766
vt 0.130859 0.375977
vt 0.283691 0.196777
vt 0.320313 0.314941
vt 0.124512 0.256348
vt 0.021484 0.362305
vt 0.001953 0.261230
vt 0.164551 0.056152
vt 0.213867 0.001953
vt 0.044922 0.090332
vt 0.112793 0.011231
vt 0.454590 0.768555
vt 0.571777 0.887207
vt 0.509277 0.892090
vt 0.527832 0.775391
vt 0.464355 0.656738
vt 0.175781 0.614258
vt 0.230469 0.559570
vt 0.230957 0.662598
vt 0.687500 0.425781
vt 0.546875 0.429199
vt 0.595703 0.464355
vt 0.114258 0.111328
vt 0.267090 0.085938
vt 0.829590 0.627441
vt 0.042481 0.537109
vt 0.013672 0.536133
vt 0.029297 0.477539
vt 0.052246 0.606934
vt 0.064453 0.833984
vt 0.001953 0.780762
vt 0.009766 0.710938
vt 0.169434 0.477539
vt 0.122559 0.667969
vt 0.058106 0.707031
vt 0.849609 0.910645
vt 0.072266 0.710938
vt 0.134277 0.762207
vt 0.118652 0.808105
vt 0.751953 0.353027
vt 0.446289 0.348145
vt 0.386230 0.031738
vt 0.022949 0.605957
vt 0.837891 0.102051
vt 0.227051 0.513184
vn 0.2765 0.5280 0.8030
vn 0.8480 -0.4085 0.3375
vn 0.9261 0.1145 -0.3594
vn 0.9100 -0.0848 0.4058
vn 0.6949 -0.7170 -0.0543
vn 0.6745 0.2619 -0.6902
vn 0.5722 -0.6747 -0.4662
vn 0.5548 -0.0472 -0.8306
vn 0.1337 -0.4229 -0.8962
vn 0.1781 0.2728 -0.9454
vn 0.3872 -0.7820 -0.4883
vn 0.8062 -0.5235 -0.2755
vn 0.8686 -0.4542 0.1978
vn 0.2120 -0.8374 -0.5037
vn 0.0853 -0.8959 -0.4359
vn 0.2876 -0.9047 -0.3144
vn -0.0181 -0.8152 -0.5788
vn -0.8628 -0.3773 -0.3364
vn -0.6937 -0.5994 -0.3992
vn -0.5583 -0.5138 -0.6514
vn -0.7434 -0.0011 -0.6688
vn -0.8780 0.2130 -0.4285
vn -0.4508 0.3692 -0.8127
vn -0.4841 0.7292 0.4836
vn -0.6471 0.5813 0.4932
vn -0.1123 0.9057 0.4087
vn -0.7642 0.6448 0.0126
vn -0.5084 0.8370 -0.2024
vn -0.7020 0.4736 -0.5319
vn 0.9479 0.1490 0.2814
vn 0.3201 0.8791 -0.3529
vn 0.0734 0.9065 0.4157
vn 0.1146 0.5179 -0.8477
vn 0.0014 0.9405 -0.3397
vn -0.2364 0.1243 -0.9637
vn -0.1894 0.7194 0.6683
vn 0.1724 0.5703 0.8031
vn 0.1057 0.4886 0.8661
vn 0.0350 0.8959 0.4429
vn 0.7205 -0.6884 -0.0834
vn 0.5854 -0.7973 0.1469
vn -0.3879 -0.8795 -0.2755
vn -0.3660 -0.3843 -0.8476
vn -0.2592 0.8895 0.3762
vn 0.6344 -0.7487 0.1920
vn 0.8354 0.0208 0.5493
usemtl m6RockP01_v
s off
f 45/1/1 21/2/1 22/3/1
s 1
f 39/4/2 1/5/3 38/6/4
f 2/7/5 1/8/3 39/4/2
f 2/7/5 3/9/6 1/8/3
f 29/10/7 3/9/6 2/7/5
f 29/10/7 4/11/8 3/9/6
f 5/12/9 4/11/8 29/10/7
f 5/12/9 27/13/10 4/11/8
f 7/14/11 6/15/12 44/16/13
f 7/14/11 8/17/14 6/15/12
f 9/18/15 8/17/14 7/14/11
f 9/18/15 35/19/16 8/17/14
f 10/20/17 35/19/16 9/18/15
f 10/20/17 5/21/9 35/19/16
f 27/22/10 5/21/9 10/20/17
f 12/23/18 11/24/19 30/25/20
f 12/23/18 13/26/21 11/24/19
f 14/27/22 13/26/21 12/23/18
f 14/27/22 41/28/23 13/26/21
f 34/29/24 15/30/25 25/31/26
f 34/29/24 16/32/27 15/30/25
f 40/33/28 16/32/27 34/29/24
f 40/33/28 42/34/29 16/32/27
f 45/35/30 18/36/31 17/37/32
f 45/35/30 1/38/3 18/36/31
f 19/39/33 18/40/31 3/41/6
f 19/39/33 20/42/34 18/40/31
f 26/43/35 20/42/34 19/39/33
f 26/43/35 40/44/28 20/42/34
f 23/45/36 22/3/37 21/2/38
f 23/45/36 24/46/39 22/3/37
f 34/47/24 24/46/39 23/45/36
f 34/47/24 25/48/26 24/46/39
f 36/49/40 39/50/2 28/51/41
f 36/49/40 2/52/5 39/50/2
f 29/53/7 2/52/5 36/49/40
f 10/20/17 30/54/20 11/55/19
f 10/20/17 31/56/42 30/54/20
f 9/18/15 31/56/42 10/20/17
f 19/57/33 13/26/21 41/28/23
f 19/57/33 32/58/43 13/26/21
f 27/59/10 32/58/43 19/57/33
f 33/60/44 20/42/34 40/44/28
f 33/60/44 18/40/31 20/42/34
f 17/61/32 18/40/31 33/60/44
f 18/36/31 1/38/3 3/62/6
f 23/45/36 33/60/44 34/47/24
f 23/45/36 17/61/32 33/60/44
f 21/2/38 17/61/32 23/45/36
f 36/63/40 6/64/12 35/65/16
f 36/63/40 37/66/45 6/64/12
f 28/67/41 37/68/45 36/69/40
f 3/70/6 27/71/10 19/72/33
f 1/5/3 43/73/46 38/6/4
f 1/5/3 45/35/30 43/73/46
f 35/19/16 29/53/7 36/49/40
f 35/19/16 5/21/9 29/53/7
f 28/74/41 39/75/2 38/76/4
f 41/28/23 40/33/28 26/77/35
f 41/28/23 42/34/29 40/33/28
f 11/24/19 32/58/43 10/78/17
f 11/24/19 13/26/21 32/58/43
f 26/77/35 19/57/33 41/28/23
f 45/1/30 17/61/32 21/2/38
f 45/1/30 22/3/37 43/79/46
f 6/64/12 37/66/45 44/80/13
f 33/81/44 40/33/28 34/29/24
f 27/22/10 10/20/17 32/82/43
f 35/19/16 6/15/12 8/17/14
f 3/9/6 4/11/8 27/13/10
