# Blender v2.79 (sub 7) OBJ File: 'BS.blend'
# www.blender.org
mtllib DarkCastleStepB.mtl
o Plane.005_Plane.015
v 279.468323 949.808228 -269.766174
v 271.545135 949.808044 731.119690
v 271.545135 668.756348 731.119629
v 279.468323 668.756531 -269.766205
v 1071.545044 668.756531 -269.766205
v 1071.545044 -662.677368 -269.766449
v 1071.545044 -1391.995605 -269.766541
v 279.467499 -1430.064331 -269.857452
v 279.468323 -662.888000 -269.766449
v 1071.545044 668.756409 331.119659
v 1071.545044 -642.718323 331.119446
v 1071.545044 -1391.590454 331.119324
v 671.545166 668.756409 331.119659
v -928.454956 -643.338928 731.119385
v 271.545135 -640.820190 731.119385
v -928.454956 949.808044 731.119690
v 671.545166 -642.523804 331.119446
v -928.454956 -642.523987 1531.119385
v -928.454956 -1391.396118 1531.119263
v 1071.545044 -1391.396118 1531.119263
v 1071.545044 -642.523987 1531.119385
v 274.892151 -1428.832275 -783.999817
v 274.892975 -661.656006 -783.909485
v 274.892975 1812.794312 -783.909058
v 274.892975 2165.291016 -783.908997
v 279.468323 2165.290771 -269.765961
v 279.468323 1811.139526 -269.766022
v -929.087402 -1573.255737 -270.823730
v -389.821838 -1573.255615 -786.451355
v 280.369659 -1573.255737 -270.914795
v 1074.734375 -1573.255737 331.797241
v 1074.734375 -1573.255737 -270.823730
v -931.040710 -1573.255981 1535.262451
v 1074.734375 -1573.255981 1535.262451
v -931.040710 -1573.255859 732.952271
v -388.794373 -1390.411255 -783.909607
v 275.781128 -1573.255615 -786.541748
v -929.087402 -1573.255615 -786.451355
v -928.454956 -1392.211060 731.119263
v -388.794373 2165.291016 -783.908997
v -388.794373 2165.290771 -269.765961
v -388.794373 2107.383301 -305.445923
v -388.794373 2107.383301 -748.229004
v -388.794373 1846.819702 -748.229065
v -388.794373 1846.819580 -305.445953
v -926.507324 1828.616455 -783.909058
v -926.507324 1828.616333 -269.766022
v -388.794373 1828.616333 -269.766022
v -388.794373 1829.443970 -783.909058
v -926.507324 -1390.388672 -783.909607
v -926.507324 -1393.026123 -269.766541
v -926.507324 949.808228 -269.766174
v -388.794373 949.808228 -269.766174
vt 1.651607 -1.614322
vt 1.696364 4.039590
vt 1.696364 4.039590
vt 1.081227 -0.755995
vt 2.225847 -0.755710
vt 6.170733 4.039590
vt 6.170733 0.645241
vt 1.651607 -1.614322
vt 3.911170 0.645241
vt -0.270526 1.384997
vt 0.000000 0.000000
vt 3.911170 0.645241
vt 0.269696 1.020382
vt -1.350973 -1.739887
vt -1.350973 -0.754900
vt -1.350973 -0.754900
vt 1.156102 2.585322
vt 1.156102 1.384997
vt 1.149923 2.587557
vt 7.614889 1.045510
vt 1.081350 -1.792111
vt 6.170733 0.645241
vt 6.087790 1.045510
vt 2.225847 -1.740697
vt -0.270526 -0.756001
vt 3.038096 1.045510
vt 1.149923 -0.754331
vt 9.723506 1.045510
vt 1.149923 3.033604
vt 1.696364 4.039590
vt -0.002261 2.375833
vt 0.784744 3.880848
vt 1.762824 2.376099
vt 2.922122 0.616899
vt 2.922122 2.375833
vt -0.005111 -2.895781
vt 2.922122 -2.895781
vt -0.005111 -0.553994
vt -10.982841 1.045510
vt -9.294731 1.045510
vt -0.002261 3.880848
vt 1.756127 3.881113
vt 0.269696 -1.740149
vt -0.270526 -1.740987
vt 1.081227 3.033604
vt 0.253575 3.033604
vt 1.727419 2.985416
vt 1.129415 2.633510
vt 1.129415 2.985416
vt 1.775607 2.585322
vt -2.078589 4.039590
vt 1.775607 2.586439
vt -7.928182 1.045510
vt 1.727419 2.633510
vt 1.081227 2.585322
vt 1.775607 3.033604
vt 1.081227 -1.742088
vt 0.253575 1.384997
vt 1.081227 1.384997
vt 1.081227 2.585322
vn 1.0000 0.0000 0.0079
vn 0.0000 0.0000 -1.0000
vn 1.0000 0.0000 0.0000
vn 0.0000 1.0000 0.0000
vn 0.0000 -0.0000 1.0000
vn 0.7071 -0.0000 0.7071
vn 1.0000 0.0000 -0.0089
vn 0.0010 1.0000 0.0007
vn 0.0018 1.0000 -0.0006
vn 0.0010 1.0000 0.0004
vn -0.0001 0.0029 -1.0000
vn 0.0004 0.0005 -1.0000
vn 1.0000 0.0032 -0.0089
vn -0.0021 1.0000 -0.0010
vn -0.0013 1.0000 0.0002
vn 0.0005 1.0000 -0.0002
vn -0.0000 -1.0000 -0.0000
vn 0.9998 0.0176 -0.0000
vn 0.0000 0.0228 0.9997
vn -0.0000 0.0170 -0.9999
vn 0.0006 0.0144 -0.9999
vn 0.0007 0.0139 -0.9999
vn -0.0001 0.0060 -1.0000
vn 0.9999 0.0064 -0.0089
vn 0.9998 0.0175 -0.0000
vn -0.9999 0.0142 -0.0000
vn -0.9999 0.0143 -0.0010
vn -0.0001 0.0176 -0.9998
vn 0.0001 0.0074 -1.0000
vn 0.9999 0.0063 -0.0089
vn -1.0000 -0.0000 0.0000
vn -0.0007 1.0000 0.0008
vn -0.0008 1.0000 0.0008
vn -0.0015 1.0000 0.0016
vn 0.0000 0.0139 -0.9999
vn 0.0000 0.0070 -1.0000
vn 0.0000 0.0119 -0.9999
vn -0.9999 0.0143 -0.0009
vn -0.9999 0.0141 0.0000
vn -1.0000 -0.0000 -0.0010
vn -1.0000 0.0000 -0.0013
vn -1.0000 0.0000 -0.0006
vn -0.0001 0.0000 -1.0000
vn -1.0000 0.0000 -0.0019
usemtl m12Brck66S2_v.002
s 1
f 2/1/1 4/2/1 1/3/1
f 9/4/2 4/2/2 6/5/2
f 6/5/3 5/6/3 11/7/3
f 4/2/4 3/8/4 13/9/4
f 3/8/5 2/1/5 16/10/5
f 13/9/6 15/11/6 17/12/6
f 17/12/5 10/13/5 13/9/5
f 19/14/5 21/15/5 18/16/5
f 27/17/7 1/18/7 24/19/7
f 21/15/8 17/12/9 15/11/10
f 2/1/1 3/8/1 4/2/1
f 4/2/2 5/6/2 6/5/2
f 6/5/2 7/20/11 9/4/2
f 7/20/11 8/21/12 9/4/2
f 5/6/3 10/22/3 11/7/3
f 11/7/3 12/23/3 6/5/3
f 12/23/3 7/24/3 6/5/3
f 13/9/4 10/22/4 5/6/4
f 5/6/4 4/2/4 13/9/4
f 16/10/5 14/25/5 3/8/5
f 14/25/5 15/11/5 3/8/5
f 13/9/6 3/8/6 15/11/6
f 17/12/5 11/7/5 10/13/5
f 19/14/5 20/26/5 21/15/5
f 4/2/7 9/4/7 23/27/7
f 9/4/7 8/21/13 22/28/13
f 23/27/7 9/4/7 22/28/13
f 24/19/7 25/29/7 26/30/7
f 23/27/7 24/19/7 4/2/7
f 4/2/7 24/19/7 1/18/7
f 24/19/7 26/30/7 27/17/7
f 14/25/14 18/16/15 15/11/10
f 18/16/15 21/15/8 15/11/10
f 21/15/8 11/7/16 17/12/9
usemtl m38Met28M2_v.002
f 28/31/17 29/32/17 30/33/17
f 7/24/18 31/34/18 32/35/18
f 33/36/19 20/26/19 19/14/19
f 34/37/17 35/38/17 31/34/17
f 22/39/20 29/32/21 36/40/22
f 32/35/23 8/21/12 7/20/11
f 35/38/17 28/31/17 30/33/17
f 31/34/17 35/38/17 30/33/17
f 28/31/17 38/41/17 29/32/17
f 29/32/17 37/42/17 30/33/17
f 30/33/17 32/35/17 31/34/17
f 30/33/24 22/28/13 8/21/13
f 31/34/18 20/26/25 34/37/25
f 19/14/26 35/38/27 33/36/26
f 20/26/3 11/7/3 21/15/3
f 7/24/18 12/23/18 31/34/18
f 33/36/19 34/37/19 20/26/19
f 34/37/17 33/36/17 35/38/17
f 22/39/20 37/42/28 29/32/21
f 32/35/23 30/33/29 8/21/12
f 30/33/24 37/42/30 22/28/13
f 31/34/18 12/43/18 20/26/25
f 19/14/26 39/44/27 35/38/27
f 20/26/3 12/43/3 11/7/3
usemtl m4Brck19M_v.002
f 41/45/4 25/29/4 40/46/4
f 43/47/31 45/48/31 42/49/31
f 46/50/32 48/51/33 49/52/34
f 29/32/35 50/53/36 36/40/37
f 45/48/31 41/45/31 42/49/31
f 43/47/31 49/52/31 44/54/31
f 45/48/31 49/52/31 48/55/31
f 43/47/31 41/45/31 40/56/31
f 28/31/38 39/44/27 51/57/38
f 2/1/4 1/3/4 53/58/4
f 28/31/38 50/53/26 38/41/39
f 45/48/31 48/55/31 41/45/31
f 43/47/31 40/56/31 49/52/31
f 45/48/31 44/54/31 49/52/31
f 43/47/31 42/49/31 41/45/31
f 53/58/5 27/17/5 48/51/5
f 51/57/40 14/25/41 52/59/42
f 22/39/43 36/40/37 49/52/2
f 41/45/4 26/30/4 25/29/4
f 43/47/31 44/54/31 45/48/31
f 46/50/32 47/60/4 48/51/33
f 29/32/35 38/41/35 50/53/36
f 28/31/38 35/38/27 39/44/27
f 53/58/4 52/59/4 16/10/4
f 16/10/4 2/1/4 53/58/4
f 28/31/38 51/57/38 50/53/26
f 47/60/5 52/59/5 53/58/5
f 53/58/5 1/18/5 27/17/5
f 27/17/5 26/30/5 48/51/5
f 26/30/5 41/45/5 48/51/5
f 48/51/5 47/60/5 53/58/5
f 52/59/42 47/60/31 46/50/31
f 46/50/31 50/53/31 52/59/42
f 50/53/31 51/57/40 52/59/42
f 51/57/40 39/44/40 14/25/41
f 39/44/40 19/14/31 14/25/41
f 19/14/31 18/16/31 14/25/41
f 14/25/41 16/10/44 52/59/42
f 50/53/36 46/50/2 36/40/37
f 46/50/2 49/52/2 36/40/37
f 49/52/2 40/46/2 25/29/2
f 25/29/2 22/39/43 49/52/2
