# Blender v2.79 (sub 7) OBJ File: 'CastleStepA.blend'
# www.blender.org
mtllib DarkCastleStepA.mtl
o Plane.001_Plane.000
v 157.408173 20.576710 470.300140
v -320.300385 20.576710 95.300133
v 321.140991 20.576710 -467.199860
v -161.363556 20.576710 470.300140
v 319.192017 20.576710 470.300140
v 321.140991 20.576710 -279.699860
v -319.532715 20.576710 -654.699890
v -320.300385 20.576710 282.800140
v 321.140991 20.576710 282.800140
v 321.140991 20.576710 95.300133
v -3.194375 20.576710 470.300140
v 321.140991 20.576710 -92.199867
v -319.532715 20.576710 -842.199890
v 268.592651 31.793879 -92.199867
v -267.752075 31.793879 282.692535
v 268.592651 31.793879 -466.926758
v 268.592651 31.793879 -279.699860
v -266.984406 31.793879 -654.592285
v -267.199127 31.793879 417.751831
v -267.752075 31.793879 95.300133
v 267.187073 31.793879 417.751770
v 266.643707 31.793879 -654.426819
v -267.752075 31.793879 -92.199867
v 319.192017 20.576710 -842.199890
v 268.592651 31.793879 282.527008
v -267.752075 31.793879 -467.092285
v -267.752075 31.793879 -279.699860
v 268.592651 31.793879 95.300133
v -161.363556 31.793879 417.751831
v -3.194375 31.793879 417.751831
v 157.408173 31.793879 417.751831
v -319.532715 20.576710 470.300140
v -266.984406 31.793879 -789.651611
v -320.300385 20.576710 -279.699860
v -320.300385 20.576710 -467.199860
v -320.300385 20.576710 -92.199867
v 319.192017 20.576710 -654.699890
v 266.643707 31.793879 -789.651611
vt -0.967929 -1.155285
vt -0.967939 1.644068
vt -2.650912 0.263251
vt 1.966512 -1.155275
vt 0.989316 -1.429545
vt 1.967939 -1.429541
vt 3.650907 1.640077
vt 2.946548 1.914342
vt 2.945988 1.640075
vt -2.650917 1.641175
vt -1.946562 1.918331
vt -2.925184 1.914320
vt 1.967365 1.644078
vt 0.989304 1.918341
vt 0.989305 1.644075
vt 0.010682 1.918338
vt 0.010683 1.644071
vt -1.945126 -1.155289
vt -0.967929 -1.429552
vt -2.650915 1.088786
vt -2.925178 0.263250
vt -2.925174 -0.574985
vt -2.650908 -0.574984
vt -0.967940 1.918335
vt -2.650906 -1.147955
vt -1.946551 -1.429555
vt 0.010694 -1.429549
vt 0.010693 -1.155282
vt 3.650917 -1.145096
vt 2.946561 -1.419365
vt 3.925184 -1.419362
vt 0.989315 -1.155279
vt 1.967926 1.918345
vt -1.945999 1.644065
vt 2.945134 -1.145099
vt -2.925172 -1.419386
vt -2.925181 1.088785
vt 3.925174 1.914346
vn 0.0000 1.0000 0.0000
vn 0.2088 0.9780 0.0000
vn -0.2088 0.9780 0.0000
vn -0.2088 0.9780 0.0009
vn 0.0000 0.9780 0.2088
vn 0.2087 0.9780 0.0022
vn -0.2088 0.9780 -0.0009
vn 0.2087 0.9780 -0.0022
vn 0.0000 0.9780 -0.2088
usemtl m12Brck66S2_v
s off
f 28/1/1 20/2/1 30/3/1
f 16/4/2 6/5/2 3/6/2
f 33/7/3 7/8/3 18/9/3
f 19/10/4 8/11/4 32/12/4
f 26/13/3 34/14/3 27/15/3
f 27/15/3 36/16/3 23/17/3
f 25/18/2 10/19/2 28/1/2
f 29/20/5 11/21/5 30/3/5
f 30/3/5 1/22/5 31/23/5
f 23/17/3 2/24/3 20/2/3
f 21/25/6 9/26/6 25/18/6
f 28/1/2 12/27/2 14/28/2
f 38/29/2 37/30/2 24/31/2
f 14/28/2 6/5/2 17/32/2
f 26/13/7 7/8/7 35/33/7
f 15/34/3 2/24/3 8/11/3
f 16/4/8 37/30/8 22/35/8
f 21/25/5 1/22/5 5/36/5
f 19/10/5 4/37/5 29/20/5
f 38/29/9 13/38/9 33/7/9
f 17/32/1 16/4/1 27/15/1
f 16/4/1 22/35/1 26/13/1
f 27/15/1 16/4/1 26/13/1
f 22/35/1 38/29/1 18/9/1
f 38/29/1 33/7/1 18/9/1
f 18/9/1 26/13/1 22/35/1
f 14/28/1 17/32/1 23/17/1
f 23/17/1 17/32/1 27/15/1
f 21/25/1 25/18/1 31/23/1
f 25/18/1 28/1/1 30/3/1
f 28/1/1 14/28/1 23/17/1
f 23/17/1 20/2/1 28/1/1
f 20/2/1 15/34/1 30/3/1
f 30/3/1 15/34/1 29/20/1
f 25/18/1 30/3/1 31/23/1
f 15/34/1 19/10/1 29/20/1
f 16/4/2 17/32/2 6/5/2
f 33/7/3 13/38/3 7/8/3
f 19/10/4 15/34/4 8/11/4
f 26/13/3 35/33/3 34/14/3
f 27/15/3 34/14/3 36/16/3
f 25/18/2 9/26/2 10/19/2
f 29/20/5 4/37/5 11/21/5
f 30/3/5 11/21/5 1/22/5
f 23/17/3 36/16/3 2/24/3
f 21/25/6 5/36/6 9/26/6
f 28/1/2 10/19/2 12/27/2
f 38/29/2 22/35/2 37/30/2
f 14/28/2 12/27/2 6/5/2
f 26/13/7 18/9/7 7/8/7
f 15/34/3 20/2/3 2/24/3
f 16/4/8 3/6/8 37/30/8
f 21/25/5 31/23/5 1/22/5
f 19/10/5 32/12/5 4/37/5
f 38/29/9 24/31/9 13/38/9
o Plane.002_Plane.009
v 465.976288 -66.499619 641.501953
v 465.976288 -66.499619 -821.456909
v -465.156982 -66.499619 641.501953
v -465.156982 -66.499619 -821.456909
v 465.976288 -467.554718 641.501953
v -465.156982 -467.554718 641.501953
v 465.976288 -467.554718 -821.456909
v -465.156982 -467.554718 -821.456909
vt 1.710877 4.325916
vt 0.000000 0.000000
vt 0.000000 0.000000
vt 0.000000 0.000000
vt 2.507156 -2.264436
vt 0.000000 0.000000
vt -1.496301 -3.205915
vt -2.286649 4.325916
vt -2.286649 -3.205915
vt -1.496301 4.325916
vt 2.507156 -3.205915
vt -2.286649 3.384437
vn 0.0000 0.0000 -1.0000
vn 1.0000 0.0000 0.0000
vn 0.0000 0.0000 1.0000
vn -1.0000 0.0000 0.0000
vn 0.0000 -1.0000 0.0000
usemtl m23Brck82M4_v
s off
f 45/39/10 42/40/10 40/41/10
f 39/42/11 45/43/11 40/41/11
f 41/44/12 43/45/12 39/42/12
f 41/44/13 46/46/13 44/47/13
f 43/45/14 46/48/14 45/43/14
f 45/39/10 46/48/10 42/40/10
f 39/42/11 43/49/11 45/43/11
f 41/44/12 44/47/12 43/45/12
f 41/44/13 42/40/13 46/46/13
f 43/45/14 44/50/14 46/48/14
o Plane.000_Plane.008
v -311.642365 -66.499619 641.501953
v 465.976288 -66.499619 -272.847229
v 311.309570 -66.499619 641.501953
v -465.156982 -66.499619 641.501953
v -465.156982 -66.499619 92.892464
v 465.976288 -66.499619 92.892464
v -465.156982 -66.499619 -272.847229
v -465.156982 -66.499619 458.632050
v 465.976288 -66.499619 275.762299
v 465.976288 -66.499619 -821.456909
v -465.156982 -66.499619 -821.456909
v 465.976288 -66.499619 458.632050
v -311.642365 -66.499619 -821.456909
v 311.309570 -66.499619 -821.456909
v 319.192017 143.403076 657.800110
v -319.532715 143.403076 657.800110
v -319.532715 143.403076 470.300140
v 477.774811 143.403076 282.800140
v -476.934235 143.403076 95.300133
v -476.934235 143.403076 282.800140
v 319.192017 143.403076 -842.199890
v 477.774811 143.403076 470.300140
v -319.532715 143.403076 -654.699890
v 477.774811 143.403076 -279.699860
v 477.774811 143.403076 -467.199860
v 321.140991 143.403076 282.800140
v -476.934235 143.403076 -842.199890
v -476.934235 143.403076 -467.199860
v 157.408173 143.403076 657.800110
v 157.408173 143.403076 470.300140
v -161.363556 143.403076 657.800110
v -161.363556 143.403076 470.300140
v -320.300385 143.403076 -467.199860
v -319.532715 143.403076 -842.199890
v 319.192017 96.191414 -654.699890
v 319.192017 96.191414 657.800110
v -319.532715 96.191414 657.800110
v 319.192017 96.191414 470.300140
v -319.532715 96.191414 470.300140
v -319.532715 96.191414 -654.699890
v 477.774811 96.191414 -279.699860
v 477.774811 96.191414 95.300133
v 321.140991 96.191414 95.300133
v 477.774811 96.191414 470.300140
v 321.140991 96.191414 282.800140
v -320.300385 96.191414 95.300133
v -320.300385 96.191414 -92.199867
v -476.934235 96.191414 282.800140
v -320.300385 96.191414 282.800140
v 157.408173 96.191414 657.800110
v -161.363556 96.191414 470.300140
v -476.934235 96.191414 -467.199860
v -476.934235 96.191414 95.300133
v -3.194375 79.194984 470.300140
v -319.532715 -28.034380 657.800110
v -476.934235 79.194984 657.800110
v 477.774811 79.194984 657.800110
v -476.934235 -28.034380 -654.699890
v -476.934235 79.194984 -842.199890
v -319.532715 79.194984 -842.199890
v -3.194375 79.194984 657.800110
v 477.774811 79.194984 -842.199890
v 319.192017 79.194984 -842.199890
v 477.774811 -28.034380 -279.699860
v 477.774811 -28.034380 -654.699890
v 319.192017 -28.034380 657.800110
v -476.934235 -28.034380 -467.199860
v 477.774811 -28.034380 -467.199860
v -476.934235 -28.034380 282.800140
v 157.408173 20.576710 470.300140
v -320.300385 20.576710 95.300133
v 477.774811 -28.034380 657.800110
v -476.934235 -28.034380 657.800110
v 321.140991 96.191414 -467.199860
v -320.300385 96.191414 -467.199860
v 321.140991 96.191414 -92.199867
v 321.140991 96.191414 -279.699860
v 477.774811 96.191414 -92.199867
v -476.934235 96.191414 -279.699860
v -476.934235 96.191414 -92.199867
v 477.774811 96.191414 -654.699890
v -476.934235 96.191414 -654.699890
v -320.300385 96.191414 -279.699860
v 477.774811 96.191414 -467.199860
v 477.774811 96.191414 282.800140
v -476.934235 96.191414 470.300140
v 157.408173 96.191414 470.300140
v -161.363556 96.191414 657.800110
v 319.192017 143.403076 470.300140
v -320.300385 143.403076 282.800140
v -320.300385 143.403076 95.300133
v 477.774811 143.403076 95.300133
v -476.934235 143.403076 470.300140
v -476.934235 143.403076 657.800110
v 477.774811 143.403076 -654.699890
v 319.192017 143.403076 -654.699890
v 321.140991 143.403076 95.300133
v -476.934235 143.403076 -654.699890
v -320.300385 143.403076 -279.699860
v -476.934235 143.403076 -279.699860
v 321.140991 143.403076 -279.699860
v 321.140991 143.403076 -467.199860
v 477.774811 143.403076 -842.199890
v -3.194375 143.403076 657.800110
v -3.194375 143.403076 470.300140
v 477.774811 143.403076 657.800110
v -476.934235 -28.034380 95.300133
v 321.140991 20.576710 -467.199860
v 477.774811 -28.034380 95.300133
v -476.934235 -28.034380 -279.699860
v -476.934235 -28.034380 470.300140
v 477.774811 -28.034380 282.800140
v 477.774811 -28.034380 -92.199867
v -161.363556 20.576710 470.300140
v -476.934235 -28.034380 -92.199867
v 477.774811 -28.034380 -842.199890
v 319.192017 20.576710 470.300140
v -476.934235 -28.034380 -842.199890
v 477.774811 -28.034380 470.300140
v -161.363556 -28.034380 657.800110
v -3.194375 -28.034380 657.800110
v 157.408173 -28.034380 657.800110
v -319.532715 -28.034380 -842.199890
v 319.192017 -28.034380 -842.199890
v -465.156982 -66.499619 -638.586975
v 465.976288 -66.499619 -638.586975
v -465.156982 -66.499619 -455.717102
v 465.976288 -66.499619 -455.717102
v -465.156982 -66.499619 275.762299
v 465.976288 -66.499619 641.501953
v 465.976288 -66.499619 -89.977386
v -465.156982 -66.499619 -89.977386
v -157.379074 -66.499619 641.501953
v -3.115757 -66.499619 641.501953
v 153.520828 -66.499619 641.501953
v 321.140991 20.576710 -279.699860
v -319.532715 20.576710 -654.699890
v -320.300385 20.576710 282.800140
v 321.140991 20.576710 282.800140
v 321.140991 20.576710 95.300133
v -3.194375 20.576710 470.300140
v 321.140991 20.576710 -92.199867
v -319.532715 20.576710 -842.199890
v 319.192017 20.576710 -842.199890
v -319.532715 20.576710 470.300140
v -320.300385 20.576710 -279.699860
v -320.300385 20.576710 -467.199860
v -320.300385 20.576710 -92.199867
v 319.192017 20.576710 -654.699890
vt 0.187576 0.387321
vt -0.332836 0.387321
vt 0.187576 0.387321
vt 1.248299 0.387321
vt 1.770073 0.387321
vt 1.248299 0.387321
vt -0.853248 0.387321
vt -1.371135 0.387321
vt -0.853248 0.387321
vt 1.810651 0.230407
vt 1.770073 0.230407
vt 2.427568 0.230407
vt 0.576817 0.230407
vt 1.193734 0.230407
vt 0.576817 0.230407
vt 0.715995 0.037539
vt 1.248299 0.230407
vt 1.248299 0.037539
vt -1.890851 0.230407
vt -0.853248 -0.122402
vt -0.332836 -0.122402
vt -0.332836 0.037539
vt 0.187576 0.230407
vt 0.187576 0.037539
vt -1.371135 0.230407
vt -0.853248 0.230407
vt 0.187576 0.230407
vt 0.715995 -0.122402
vt 0.715995 0.230407
vt 1.810651 0.037539
vt 2.427568 0.037539
vt -0.040100 0.037539
vt 0.576817 0.037539
vt 1.193734 0.037539
vt -0.040100 0.037539
vt -0.657017 0.230407
vt -0.657017 0.037539
vt -1.273934 0.037539
vt -0.657017 0.230407
vt -0.657017 0.037539
vt 2.427568 0.230407
vt 3.044485 0.387321
vt 3.044485 0.230407
vt 1.248299 0.230407
vt 1.770073 0.387321
vt 1.770073 0.230407
vt -1.371135 0.230407
vt -0.853248 0.387321
vt -0.853248 0.230407
vt 1.770073 0.230407
vt -0.332836 0.230407
vt 1.810651 0.387321
vt -0.040100 0.230407
vt -0.657017 0.387321
vt -0.657017 0.230407
vt 1.770073 0.230407
vt 1.254712 0.387321
vt 1.254712 0.230407
vt -0.853248 0.037539
vt -1.273934 0.230407
vt -1.273934 0.037539
vt -0.040100 -0.122402
vt 0.576817 -0.122402
vt -1.273934 0.230407
vt -0.657017 -0.122402
vt 1.770073 0.230407
vt 0.715995 0.230407
vt 1.810651 -0.122402
vt 1.193734 0.230407
vt 1.193734 -0.122402
vt 1.810651 0.037539
vt 1.193734 0.230407
vt 1.193734 0.037539
vt 0.576817 0.230407
vt 0.576817 0.037539
vt -0.040100 0.230407
vt 2.427568 0.037539
vt 1.810651 0.230407
vt 1.770073 0.230407
vt 1.248299 -0.122402
vt 1.770073 -0.122402
vt -0.040100 0.230407
vt 3.044485 0.387321
vt 3.044485 0.230407
vt 1.810651 0.230407
vt 1.193734 0.387321
vt 1.193734 0.387321
vt 2.427568 0.230407
vt 3.044485 0.387321
vt 2.427568 0.387321
vt -0.855774 0.230407
vt -1.371135 0.387321
vt -1.371135 0.230407
vt 1.248299 0.230407
vt 1.770073 0.387321
vt 1.254712 0.387321
vt 1.254712 0.230407
vt -1.273934 0.230407
vt -1.890851 0.387321
vt -1.890851 0.230407
vt -0.332836 0.230407
vt 1.254712 0.230407
vt 1.770073 0.387321
vt 1.770073 0.230407
vt -1.890851 0.387321
vt -1.890851 0.230407
vt -0.657017 0.230407
vt -0.040100 0.387321
vt -0.040100 0.230407
vt 1.254712 0.230407
vt 1.770073 0.387321
vt 1.770073 0.230407
vt -0.040100 0.387321
vt 1.248299 0.387321
vt 1.248299 0.230407
vt 1.193734 0.230407
vt 1.810651 0.387321
vt 1.810651 0.230407
vt -0.855774 0.230407
vt -1.371135 0.387321
vt -1.371135 0.230407
vt -0.853248 0.230407
vt -1.371135 0.387321
vt -1.371135 0.230407
vt -0.657017 0.387321
vt -1.371135 0.230407
vt -0.853248 0.230407
vt 0.715995 0.387321
vt -1.273934 0.230407
vt -1.890851 0.387321
vt -1.273934 0.387321
vt -1.371135 0.230407
vt -0.855774 0.387321
vt -0.855774 0.230407
vt -1.371135 0.230407
vt -0.855774 0.387321
vt -0.855774 0.230407
vt -1.890851 0.230407
vt -1.273934 0.387321
vt -1.273934 0.230407
vt -1.273934 0.387321
vt -1.273934 0.230407
vt 2.427568 0.230407
vt 3.044485 0.387321
vt 2.427568 0.387321
vt -1.890851 0.387321
vt -1.890851 0.230407
vt -1.273934 -0.122402
vt -1.890851 -0.122402
vt 1.248299 3.044485
vt 1.676421 2.879837
vt 1.185732 2.879837
vt 1.810651 -0.122402
vt 2.299672 -0.267503
vt 1.719506 -0.267503
vt 1.719506 -0.267503
vt 0.576817 -0.122402
vt 1.139341 -0.267503
vt 0.559176 -0.267503
vt 2.427568 -0.122402
vt 2.879837 -0.267503
vt 3.044485 -0.122402
vt -1.761484 -0.267503
vt -1.181319 -0.267503
vt -1.273934 -0.122402
vt -1.761484 -0.267503
vt -1.890851 -0.122402
vt 1.676421 -0.267503
vt 1.185732 -0.267503
vt 2.427568 -0.122402
vt 2.879837 -0.267503
vt 1.139341 -0.267503
vt -0.020989 -0.267503
vt -0.040100 -0.122402
vt 1.193734 -0.122402
vt -0.853248 3.044485
vt -1.277652 2.879837
vt -1.371135 3.044485
vt -0.601154 -0.267503
vt -0.020989 -0.267503
vt 0.187576 -0.122402
vt 0.685139 -0.267503
vt -0.657017 -0.122402
vt -1.181319 -0.267503
vt -0.301209 -0.267503
vt 0.188200 -0.267503
vt -0.601154 -0.267503
vt 0.559176 -0.267503
vt -1.277652 -0.267503
vt -0.790618 -0.267503
vt -0.790618 2.879837
vt 2.299672 -0.267503
vt -0.657017 0.387321
vt 1.770073 0.387321
vt 2.427568 0.387321
vt -1.371135 0.387321
vt 1.810651 0.387321
vt -0.853248 0.387321
vt 0.576817 0.230407
vt 3.044485 0.230407
vt -1.371135 -0.122402
vt 2.946561 -1.419365
vt 3.044485 0.230407
vt 2.946548 1.914342
vt 3.925174 1.914346
vt 3.925184 -1.419362
vt 0.715995 0.387321
vt 2.427568 0.387321
vt 1.248299 0.387321
vt -1.371135 0.387321
vt -0.332836 0.387321
vt 1.193734 0.387321
vt -0.040100 0.387321
vt 1.810651 0.387321
vt -0.855774 0.387321
vt 1.770073 0.387321
vt -1.273934 0.387321
vt 1.254712 0.387321
vt -1.273934 0.387321
vt -0.657017 0.387321
vt 1.254712 0.387321
vt 1.770073 0.387321
vt 1.193734 0.387321
vt -0.855774 0.387321
vt -0.040100 0.387321
vt -1.371135 0.387321
vt -1.890851 0.230407
vt -1.371135 0.387321
vt -1.890851 0.387321
vt -1.890851 0.387321
vt -1.273934 0.387321
vt 1.770073 3.044485
vt 3.044485 -0.122402
vn 0.0000 1.0000 0.0000
vn 0.0000 0.0000 -1.0000
vn 0.0000 0.0000 1.0000
vn -0.9999 0.0000 0.0104
vn -1.0000 0.0000 0.0000
vn 1.0000 0.0000 0.0000
vn -0.9999 0.0000 -0.0104
vn 1.0000 0.0000 -0.0041
vn 1.0000 0.0000 0.0041
vn 0.0000 -0.4746 -0.8802
vn -0.9562 -0.2928 0.0000
vn 0.9560 -0.2932 0.0000
vn 0.0000 -0.3901 0.9208
usemtl m4Brck19M_v
s off
f 151/51/15 77/52/15 150/53/15
f 61/54/15 68/55/15 135/56/15
f 63/57/15 140/58/15 62/59/15
f 120/60/15 127/61/15 81/62/15
f 124/63/15 123/64/15 122/65/15
f 116/66/16 84/67/16 163/68/16
f 134/69/17 101/70/17 166/71/17
f 160/72/16 100/73/16 187/74/16
f 102/75/17 101/70/17 83/76/17
f 107/77/17 168/78/17 96/79/17
f 154/80/18 81/62/18 195/81/18
f 186/82/19 122/65/19 188/83/19
f 182/84/19 120/60/19 154/80/19
f 117/85/20 95/86/20 184/87/20
f 163/88/21 91/89/21 185/90/21
f 128/91/19 73/92/19 105/93/19
f 109/94/16 149/95/16 108/96/16
f 105/97/16 80/98/16 106/99/16
f 84/67/16 68/55/16 90/100/16
f 97/101/16 151/51/16 100/73/16
f 123/64/19 148/102/19 120/60/19
f 88/103/20 64/104/20 131/105/20
f 87/106/17 147/107/17 123/108/17
f 191/109/16 97/101/16 160/72/16
f 184/87/22 85/110/22 191/111/22
f 124/63/20 155/112/20 159/113/20
f 90/114/20 158/115/20 131/116/20
f 116/66/16 100/73/16 133/117/16
f 114/118/20 87/119/20 110/120/20
f 193/121/20 129/122/20 192/123/20
f 192/123/20 93/124/20 194/125/20
f 188/83/19 123/64/19 182/84/19
f 185/90/19 89/126/19 186/82/19
f 183/127/23 121/128/23 193/121/23
f 103/129/17 112/130/17 118/131/17
f 194/125/20 92/132/20 117/85/20
f 81/62/19 67/133/19 109/134/19
f 130/135/20 70/136/20 87/119/20
f 121/128/20 145/137/20 129/122/20
f 86/138/20 80/139/20 69/140/20
f 83/76/17 140/58/17 102/75/17
f 95/141/17 66/142/17 94/143/17
f 82/144/17 152/145/17 61/54/17
f 131/116/17 72/146/17 91/147/17
f 133/148/20 75/149/20 96/150/20
f 134/151/17 150/53/17 77/52/17
f 89/152/16 138/153/16 88/154/16
f 90/114/20 152/155/20 103/156/20
f 94/157/19 65/158/19 99/159/19
f 120/160/16 71/161/16 130/162/16
f 91/89/19 143/163/19 89/126/19
f 127/61/17 142/164/17 81/165/17
f 125/166/19 74/167/19 98/168/19
f 129/169/17 146/170/17 125/171/17
f 86/172/17 144/173/17 128/174/17
f 92/132/20 136/175/20 95/86/20
f 132/176/16 63/57/16 85/177/16
f 133/117/16 151/51/16 76/178/16
f 96/79/17 150/53/17 107/77/17
f 132/179/19 140/180/19 139/181/19
f 99/182/16 137/183/16 92/184/16
f 98/185/16 79/186/16 121/187/16
f 82/188/19 135/189/19 84/190/19
f 134/69/19 78/191/19 97/192/19
f 127/193/20 149/194/20 141/195/20
f 85/110/20 62/196/20 83/197/20
f 88/103/20 158/115/20 155/112/20
f 165/198/20 103/156/20 118/199/20
f 166/71/17 107/77/17 134/151/17
f 96/79/17 112/130/17 82/144/17
f 87/106/20 159/113/20 110/120/20
f 170/200/24 56/201/24 60/202/24
f 113/203/25 171/204/25 173/205/25
f 110/120/26 174/206/26 114/118/26
f 161/207/25 53/208/25 178/209/25
f 111/210/26 56/211/26 162/212/26
f 165/198/26 176/213/26 58/214/26
f 157/215/25 50/216/25 119/217/25
f 112/130/27 176/218/27 118/131/27
f 168/78/27 49/219/27 112/130/27
f 104/220/25 57/221/25 171/204/25
f 159/113/26 48/222/26 110/120/26
f 161/207/25 51/223/25 153/224/25
f 156/225/25 173/205/25 53/208/25
f 169/226/24 57/227/24 164/228/24
f 155/112/26 55/229/26 52/230/26
f 167/231/27 181/232/27 168/78/27
f 115/233/25 54/234/25 157/215/25
f 167/231/27 179/235/27 180/236/27
f 153/224/25 175/237/25 115/233/25
f 159/113/26 52/230/26 177/238/26
f 101/70/27 50/239/27 47/240/27
f 170/200/24 59/241/24 169/226/24
f 158/115/26 58/214/26 55/229/26
f 166/71/27 47/240/27 179/235/27
f 114/118/26 172/242/26 111/210/26
f 64/104/15 143/163/15 72/243/15
f 71/161/15 147/107/15 70/244/15
f 141/195/15 67/133/15 142/245/15
f 66/142/15 137/183/15 65/246/15
f 74/167/15 145/137/15 79/247/15
f 80/98/15 144/173/15 69/248/15
f 90/114/15 91/89/15 84/190/15
f 133/117/15 82/144/15 84/67/15
f 83/76/15 97/101/15 85/177/15
f 132/179/15 95/86/15 94/157/15
f 93/124/15 125/166/15 126/249/15
f 121/187/15 128/91/15 98/185/15
f 130/135/20 111/210/20 127/61/20
f 108/250/20 111/210/20 162/212/20
f 108/250/16 170/200/16 109/94/16
f 106/99/16 164/228/16 105/97/16
f 105/97/19 104/220/19 128/91/19
f 128/91/19 113/203/19 98/185/19
f 98/185/19 156/225/19 125/166/19
f 125/166/19 161/207/19 126/249/19
f 126/249/19 153/224/19 99/182/19
f 99/182/19 115/233/19 94/157/19
f 94/157/19 157/215/19 132/179/19
f 102/75/19 157/215/19 119/251/19
f 109/134/19 195/252/19 81/62/19
f 106/253/20 183/254/20 189/255/20
f 169/226/16 190/256/16 170/200/16
f 150/53/15 75/257/15 76/178/15
f 151/51/15 78/191/15 77/52/15
f 150/53/15 76/178/15 151/51/15
f 61/54/15 152/155/15 68/55/15
f 63/57/15 139/181/15 140/58/15
f 120/60/15 130/135/15 127/61/15
f 122/65/15 89/126/15 88/103/15
f 124/63/15 87/106/15 123/64/15
f 122/65/15 88/103/15 124/63/15
f 116/66/16 133/117/16 84/67/16
f 134/69/17 83/76/17 101/70/17
f 160/72/16 97/101/16 100/73/16
f 102/75/17 119/251/17 101/70/17
f 107/77/17 167/231/17 168/78/17
f 154/80/18 120/60/18 81/62/18
f 186/82/19 89/126/19 122/65/19
f 182/84/19 123/64/19 120/60/19
f 117/85/20 92/132/20 95/86/20
f 163/88/21 84/190/21 91/89/21
f 128/91/19 144/258/19 73/92/19
f 109/94/16 67/259/16 149/95/16
f 105/97/16 73/260/16 80/98/16
f 84/67/16 135/56/16 68/55/16
f 97/101/16 78/261/16 151/51/16
f 123/64/19 147/262/19 148/102/19
f 88/103/20 138/263/20 64/104/20
f 87/106/17 70/244/17 147/107/17
f 191/109/16 85/177/16 97/101/16
f 184/87/22 95/86/22 85/110/22
f 124/63/20 88/103/20 155/112/20
f 90/114/20 165/198/20 158/115/20
f 116/66/16 187/74/16 100/73/16
f 114/118/20 130/135/20 87/119/20
f 193/121/20 121/128/20 129/122/20
f 192/123/20 129/122/20 93/124/20
f 188/83/19 122/65/19 123/64/19
f 185/90/19 91/89/19 89/126/19
f 183/127/23 86/138/23 121/128/23
f 103/129/17 82/144/17 112/130/17
f 194/125/20 93/124/20 92/132/20
f 81/62/19 142/245/19 67/133/19
f 130/135/20 71/264/20 70/136/20
f 121/128/20 79/247/20 145/137/20
f 86/138/20 106/253/20 80/139/20
f 83/76/17 62/59/17 140/58/17
f 95/141/17 136/265/17 66/142/17
f 82/144/17 103/129/17 152/145/17
f 131/116/17 64/266/17 72/146/17
f 133/148/20 76/267/20 75/149/20
f 134/151/17 107/77/17 150/53/17
f 89/152/16 143/268/16 138/153/16
f 90/114/20 68/269/20 152/155/20
f 94/157/19 66/270/19 65/158/19
f 120/160/16 148/271/16 71/161/16
f 91/89/19 72/243/19 143/163/19
f 127/61/17 141/272/17 142/164/17
f 125/166/19 146/273/19 74/167/19
f 129/169/17 145/274/17 146/170/17
f 86/172/17 69/248/17 144/173/17
f 92/132/20 137/275/20 136/175/20
f 132/176/16 139/276/16 63/57/16
f 133/117/16 100/73/16 151/51/16
f 96/79/17 75/257/17 150/53/17
f 132/179/19 102/277/19 140/180/19
f 99/182/16 65/246/16 137/183/16
f 98/185/16 74/278/16 79/186/16
f 82/188/19 61/279/19 135/189/19
f 134/69/19 77/280/19 78/191/19
f 127/193/20 108/250/20 149/194/20
f 85/110/20 63/281/20 62/196/20
f 88/103/20 131/116/20 158/115/20
f 165/198/20 90/114/20 103/156/20
f 166/71/17 167/231/17 107/77/17
f 96/79/17 168/78/17 112/130/17
f 87/106/20 124/63/20 159/113/20
f 170/200/24 162/282/24 56/201/24
f 113/203/25 104/220/25 171/204/25
f 110/120/26 48/222/26 174/206/26
f 161/207/25 156/225/25 53/208/25
f 111/210/26 172/242/26 56/211/26
f 165/198/26 118/199/26 176/213/26
f 157/215/25 54/234/25 50/216/25
f 112/130/27 49/219/27 176/218/27
f 168/78/27 181/232/27 49/219/27
f 104/220/25 164/283/25 57/221/25
f 159/113/26 177/238/26 48/222/26
f 161/207/25 178/209/25 51/223/25
f 156/225/25 113/203/25 173/205/25
f 169/226/24 59/241/24 57/227/24
f 155/112/26 158/115/26 55/229/26
f 167/231/27 180/236/27 181/232/27
f 115/233/25 175/237/25 54/234/25
f 167/231/27 166/71/27 179/235/27
f 153/224/25 51/223/25 175/237/25
f 159/113/26 155/112/26 52/230/26
f 101/70/27 119/251/27 50/239/27
f 170/200/24 60/202/24 59/241/24
f 158/115/26 165/198/26 58/214/26
f 166/71/27 101/70/27 47/240/27
f 114/118/26 174/206/26 172/242/26
f 64/104/15 138/153/15 143/163/15
f 71/161/15 148/102/15 147/107/15
f 141/195/15 149/95/15 67/133/15
f 66/142/15 136/175/15 137/183/15
f 74/167/15 146/170/15 145/137/15
f 80/98/15 73/92/15 144/173/15
f 90/114/15 131/116/15 91/89/15
f 133/117/15 96/150/15 82/144/15
f 83/76/15 134/69/15 97/101/15
f 132/179/15 85/177/15 95/86/15
f 99/182/15 92/184/15 93/124/15
f 93/124/15 129/169/15 125/166/15
f 126/249/15 99/182/15 93/124/15
f 121/187/15 86/172/15 128/91/15
f 130/135/20 114/118/20 111/210/20
f 108/250/20 127/61/20 111/210/20
f 108/250/16 162/282/16 170/200/16
f 106/99/16 169/226/16 164/228/16
f 105/97/19 164/283/19 104/220/19
f 128/91/19 104/220/19 113/203/19
f 98/185/19 113/203/19 156/225/19
f 125/166/19 156/225/19 161/207/19
f 126/249/19 161/207/19 153/224/19
f 99/182/19 153/224/19 115/233/19
f 94/157/19 115/233/19 157/215/19
f 102/75/19 132/179/19 157/215/19
f 109/134/19 190/256/19 195/252/19
f 106/253/20 86/138/20 183/254/20
f 169/226/16 189/255/16 190/256/16
