# Blender v2.79 (sub 7) OBJ File: 'spinvis1.blend'
# www.blender.org
mtllib DarkCastleStepC.mtl
o Plane
v -436.015625 -92.519699 265.454498
v -442.590790 -92.049446 704.006470
v 445.878357 -92.049446 704.006470
v 436.015625 -92.519699 265.454498
v 441.890656 207.480286 -334.545502
v -438.085571 207.480286 -334.545502
v 441.890656 207.950577 -628.572388
v -445.431213 207.950577 -632.245605
v -445.782501 -236.131973 704.737976
v 445.782501 -236.131973 704.737976
v -445.782501 -236.131973 258.955505
v 445.782501 -236.131973 258.955505
v -445.782501 61.056316 -335.421204
v 445.782501 61.056316 -335.421204
v -445.782501 61.056316 -632.609619
v 445.782501 61.056316 -632.609619
vt 1.874635 0.001234
vt 1.874635 1.951692
vt -0.874635 1.951692
vt -0.874635 0.001234
vt 1.874635 2.851842
vt -0.874635 2.851842
vt 1.874635 -1.360272
vt -0.874635 -1.360272
vt 1.430350 -0.812048
vt 0.993000 -0.812048
vt 1.430350 1.812048
vt 0.993000 1.812048
vt 0.015057 1.812048
vt -0.640967 1.812048
vt -0.640967 -0.812048
vt 0.015057 -0.812048
vn 0.7433 0.6511 0.1533
vn 0.6480 0.7407 0.1772
vn -0.6417 0.7450 0.1818
vn -0.7398 0.6548 0.1547
vn 0.5729 0.5879 -0.5711
vn -0.5743 0.5893 -0.5682
vn 0.5757 0.5888 0.5673
vn -0.5691 0.5914 0.5713
vn -0.5867 -0.5642 -0.5809
vn -0.7808 -0.6101 -0.1343
vn 0.5825 -0.5677 -0.5818
vn 0.7776 -0.6131 -0.1393
vn 0.6717 -0.7205 -0.1724
vn 0.5854 -0.5649 0.5814
vn -0.5896 -0.5626 0.5794
vn -0.6757 -0.7170 -0.1712
usemtl m12Brck66S2_v
s 1
f 4/1/1 5/2/2 6/3/3 1/4/4
f 5/2/2 7/5/5 8/6/6 6/3/3
f 3/7/7 4/1/1 1/4/4 2/8/8
f 6/3/3 8/6/6 15/9/9 13/10/10
f 8/6/6 7/5/5 16/11/11 15/9/9
f 7/5/5 5/2/2 14/12/12 16/11/11
f 5/2/2 4/1/1 12/13/13 14/12/12
f 4/1/1 3/7/7 10/14/14 12/13/13
f 3/7/7 2/8/8 9/15/15 10/14/14
f 2/8/8 1/4/4 11/16/16 9/15/15
f 1/4/4 6/3/3 13/10/10 11/16/16
usemtl m38Met28M2_v
f 13/10/10 15/9/9 16/11/11 14/12/12
f 11/16/16 13/10/10 14/12/12 12/13/13
f 10/14/14 9/15/15 11/16/16 12/13/13
