# Blender v2.79 (sub 7) OBJ File: 'MainBeachButIAmGonnaTryToAddACave.blend'
# www.blender.org
mtllib SunBeachRopeExtension.mtl
o FloatyBeachTheSecond.001_Plane.002
v 979.417114 7016.963867 -2653.705566
v 963.558655 7016.963867 -2650.549072
v 950.115662 7016.963867 -2641.564941
v 941.131714 7016.963867 -2628.119629
v 937.977722 7016.963867 -2612.266113
v 941.131714 7016.963867 -2596.412598
v 950.115662 7016.963867 -2582.967285
v 963.558655 7016.963867 -2573.983154
v 979.417114 7016.963867 -2570.826660
v 995.275513 7016.963867 -2573.983154
v 1008.718506 7016.963867 -2582.967285
v 1017.702515 7016.963867 -2596.412598
v 1020.856445 7016.963867 -2612.266113
v 1017.702515 7016.963867 -2628.119629
v 1008.718506 7016.963867 -2641.564941
v 995.275513 7016.963867 -2650.549072
v 980.563660 7017.326660 -2799.204346
v 964.705200 7017.326660 -2796.047852
v 951.262207 7017.326660 -2787.063721
v 942.278259 7017.326660 -2773.618408
v 939.124268 7017.326660 -2757.764893
v 942.278259 7017.326660 -2741.911377
v 951.262207 7017.326660 -2728.466064
v 964.705200 7017.326660 -2719.481934
v 980.563660 7017.326660 -2716.325439
v 996.422058 7017.326660 -2719.481934
v 1009.865051 7017.326660 -2728.466064
v 1018.849060 7017.326660 -2741.911377
v 1022.002991 7017.326660 -2757.764893
v 1018.849060 7017.326660 -2773.618408
v 1009.865051 7017.326660 -2787.063721
v 996.422058 7017.326660 -2796.047852
v 979.416931 6439.013184 -2653.705322
v 963.558472 6439.013184 -2650.548828
v 950.115479 6439.013184 -2641.564697
v 941.131531 6439.013184 -2628.119385
v 937.977539 6439.013184 -2612.265869
v 941.131531 6439.013184 -2596.412354
v 950.115479 6439.013184 -2582.967041
v 963.558472 6439.013184 -2573.982910
v 979.416931 6439.013184 -2570.826416
v 995.275330 6439.013184 -2573.982910
v 1008.718323 6439.013184 -2582.967041
v 1017.702332 6439.013184 -2596.412354
v 1020.856262 6439.013184 -2612.265869
v 1017.702332 6439.013184 -2628.119385
v 1008.718323 6439.013184 -2641.564697
v 995.275330 6439.013184 -2650.548828
v 980.563477 6439.375977 -2799.204102
v 964.705017 6439.375977 -2796.047607
v 951.262024 6439.375977 -2787.063477
v 942.278076 6439.375977 -2773.618164
v 939.124084 6439.375977 -2757.764648
v 942.278076 6439.375977 -2741.911133
v 951.262024 6439.375977 -2728.465820
v 964.705017 6439.375977 -2719.481689
v 980.563477 6439.375977 -2716.325195
v 996.421875 6439.375977 -2719.481689
v 1009.864868 6439.375977 -2728.465820
v 1018.848877 6439.375977 -2741.911133
v 1022.002808 6439.375977 -2757.764648
v 1018.848877 6439.375977 -2773.618164
v 1009.864868 6439.375977 -2787.063477
v 996.421875 6439.375977 -2796.047607
vt 14.395100 16.295748
vt 14.220810 23.788795
vt 14.220810 16.295748
vt 5.871462 16.300457
vt 6.077005 23.793491
vt 6.077005 16.300457
vt 14.235676 16.300457
vt 14.409964 23.793491
vt 14.409964 16.300457
vt 14.615566 16.300457
vt 14.409964 23.793491
vt 14.409964 16.300457
vt 2.930116 16.295748
vt 3.135659 23.788795
vt 3.135659 16.295748
vt 14.821168 16.300457
vt 14.995456 23.793491
vt 14.995450 16.300457
vt 3.341189 23.788795
vt 3.341189 16.295748
vt 3.515506 23.788795
vt 3.515506 16.295748
vt 6.077005 16.300457
vt 5.871462 23.793491
vt 5.871462 16.300457
vt 14.806305 16.295748
vt 14.980585 23.788795
vt 14.980585 16.295748
vt 5.665925 23.793491
vt 5.665925 16.300457
vt 3.515506 16.295748
vt 3.341189 23.788795
vt 3.341189 16.295748
vt 14.600701 16.295748
vt 14.395100 23.788795
vt 14.600701 23.788795
vt 5.491615 23.793491
vt 5.491615 16.300457
vt 3.135659 23.788795
vt 3.135659 16.295748
vt 14.995450 16.300457
vt 14.821168 23.793491
vt 14.821168 16.300457
vt 2.930116 23.788795
vt 2.930116 16.295748
vt 14.600701 16.295748
vt 14.395100 23.788795
vt 14.615566 23.793491
vt 2.755798 23.788795
vt 2.755798 16.295748
vt 6.251316 16.300457
vt 6.077005 23.793491
vt 14.220810 16.295748
vt 14.395100 16.295748
vt 14.980585 16.295748
vt 14.806305 23.788795
vt 14.806305 16.295748
vt 14.235676 23.793491
vt 14.235676 16.300457
vt 14.600701 23.788795
vt 5.491615 16.300457
vt 5.665925 23.793491
vt 5.665925 16.300457
vt 6.251316 23.793491
vt 6.251316 16.300457
vt 2.755798 16.295748
vt 2.930116 23.788795
vt 5.871462 23.793491
vt 14.615566 23.793491
vt 14.821168 23.793491
vt 14.615566 16.300457
vt 14.806305 23.788795
vt 14.235676 23.793491
vt 3.515506 23.788795
vt 14.995456 23.793491
vt 6.251316 23.793491
vt 14.220810 23.788795
vt 14.980585 23.788795
vt 5.491615 23.793491
vt 2.755798 23.788795
vn -0.2856 -0.6657 0.6894
vn -0.7071 0.0000 0.7071
vn -0.5277 -0.6657 0.5276
vn -0.7462 -0.6657 0.0000
vn -0.9239 0.0000 -0.3827
vn -0.6894 -0.6657 -0.2856
vn -0.5277 -0.6657 -0.5276
vn -0.3828 -0.0000 -0.9238
vn -0.2856 -0.6657 -0.6894
vn 0.0000 -0.6656 0.7463
vn -0.3828 0.0000 0.9238
vn -0.6894 -0.6657 0.2856
vn -1.0000 0.0000 -0.0000
vn 0.2856 -0.6657 -0.6894
vn 0.7071 -0.0000 -0.7071
vn 0.5277 -0.6657 -0.5276
vn -0.7071 -0.0000 -0.7071
vn 0.6894 -0.6657 -0.2856
vn 1.0000 -0.0000 0.0000
vn 0.7462 -0.6657 -0.0000
vn 0.9239 -0.0000 0.3827
vn 0.6894 -0.6657 0.2856
vn 0.9239 -0.0000 -0.3827
vn 0.0000 -0.6657 -0.7462
vn 0.0000 -0.0000 -1.0000
vn 0.7071 -0.0000 0.7071
vn 0.5277 -0.6657 0.5276
vn 0.3828 0.0000 0.9238
vn 0.2856 -0.6657 0.6894
vn 0.0000 -0.6657 0.7462
vn 0.0000 0.0000 1.0000
vn -0.9239 0.0000 0.3827
vn 0.3828 -0.0000 -0.9238
vn -0.0000 -0.6656 -0.7463
usemtl m17Wood05_v
s 1
f 40/1/1 7/2/2 39/3/3
f 53/4/4 20/5/5 52/6/6
f 51/7/7 18/8/8 50/9/9
f 57/10/10 24/11/11 56/12/1
f 38/13/12 5/14/13 37/15/4
f 64/16/14 31/17/15 63/18/16
f 37/15/4 4/19/5 36/20/6
f 36/20/6 3/21/17 35/22/7
f 62/23/18 29/24/19 61/25/20
f 48/26/14 15/27/15 47/28/16
f 61/25/20 28/29/21 60/30/22
f 47/31/16 14/32/23 46/33/18
f 33/34/24 2/35/8 1/36/25
f 60/30/22 27/37/26 59/38/27
f 46/33/18 13/39/19 45/40/20
f 59/41/27 26/42/28 58/43/29
f 45/40/20 12/44/21 44/45/22
f 41/46/30 8/47/11 40/1/1
f 58/43/29 25/48/31 57/10/10
f 44/45/22 11/49/26 43/50/27
f 63/51/16 30/52/23 62/23/18
f 35/53/7 2/35/8 34/54/9
f 43/55/27 10/56/28 42/57/29
f 56/12/1 23/58/2 55/59/3
f 42/57/29 9/60/31 41/46/30
f 55/61/3 22/62/32 54/63/12
f 52/6/6 19/64/17 51/65/7
f 39/66/3 6/67/32 38/13/12
f 54/63/12 21/68/13 53/4/4
f 64/16/14 17/69/25 32/70/33
f 35/53/7 47/31/16 39/66/3
f 49/71/34 18/8/8 17/69/25
f 48/26/14 1/36/25 16/72/33
f 40/1/1 8/47/11 7/2/2
f 53/4/4 21/68/13 20/5/5
f 51/7/7 19/73/17 18/8/8
f 57/10/10 25/48/31 24/11/11
f 38/13/12 6/67/32 5/14/13
f 64/16/14 32/70/33 31/17/15
f 37/15/4 5/14/13 4/19/5
f 36/20/6 4/19/5 3/21/17
f 62/23/18 30/52/23 29/24/19
f 48/26/14 16/72/33 15/27/15
f 61/25/20 29/24/19 28/29/21
f 47/31/16 15/74/15 14/32/23
f 33/34/24 34/54/9 2/35/8
f 60/30/22 28/29/21 27/37/26
f 46/33/18 14/32/23 13/39/19
f 59/41/27 27/75/26 26/42/28
f 45/40/20 13/39/19 12/44/21
f 41/46/30 9/60/31 8/47/11
f 58/43/29 26/42/28 25/48/31
f 44/45/22 12/44/21 11/49/26
f 63/51/16 31/76/15 30/52/23
f 35/53/7 3/77/17 2/35/8
f 43/55/27 11/78/26 10/56/28
f 56/12/1 24/11/11 23/58/2
f 42/57/29 10/56/28 9/60/31
f 55/61/3 23/79/2 22/62/32
f 52/6/6 20/5/5 19/64/17
f 39/66/3 7/80/2 6/67/32
f 54/63/12 22/62/32 21/68/13
f 64/16/14 49/71/34 17/69/25
f 51/7/7 63/51/16 55/61/3
f 49/71/34 50/9/9 18/8/8
f 48/26/14 33/34/24 1/36/25
f 37/15/4 36/20/6 38/13/12
f 36/20/6 35/53/7 38/13/12
f 35/53/7 34/54/9 47/31/16
f 34/54/9 33/34/24 48/26/14
f 47/31/16 34/54/9 48/26/14
f 47/31/16 46/33/18 43/55/27
f 46/33/18 45/40/20 44/45/22
f 43/55/27 46/33/18 44/45/22
f 43/55/27 42/57/29 40/1/1
f 42/57/29 41/46/30 40/1/1
f 40/1/1 39/66/3 43/55/27
f 39/66/3 38/13/12 35/53/7
f 39/66/3 47/31/16 43/55/27
f 53/4/4 52/6/6 54/63/12
f 52/6/6 51/7/7 54/63/12
f 51/7/7 50/9/9 63/51/16
f 50/9/9 49/71/34 64/16/14
f 63/51/16 50/9/9 64/16/14
f 63/51/16 62/23/18 59/41/27
f 62/23/18 61/25/20 60/30/22
f 59/41/27 62/23/18 60/30/22
f 59/41/27 58/43/29 56/12/1
f 58/43/29 57/10/10 56/12/1
f 56/12/1 55/61/3 59/41/27
f 55/61/3 54/63/12 51/7/7
f 55/61/3 63/51/16 59/41/27
