# Blender v2.79 (sub 7) OBJ File: 'MainBeachButIAmGonnaTryToAddACave.blend'
# www.blender.org
mtllib SunBeachRopeExtension.mtl
o FloatyBeachTheSecond.001_Plane.002
v 979.417114 7016.964355 -2614.493164
v 963.558655 7016.964355 -2611.336670
v 950.115662 7016.964355 -2602.352539
v 941.131714 7016.964355 -2588.907227
v 937.977722 7016.964355 -2573.053711
v 941.131714 7016.964355 -2557.200195
v 950.115662 7016.964355 -2543.754883
v 963.558655 7016.964355 -2534.770752
v 979.417114 7016.964355 -2531.614258
v 995.275513 7016.964355 -2534.770752
v 1008.718506 7016.964355 -2543.754883
v 1017.702515 7016.964355 -2557.200195
v 1020.856445 7016.964355 -2573.053711
v 1017.702515 7016.964355 -2588.907227
v 1008.718506 7016.964355 -2602.352539
v 995.275513 7016.964355 -2611.336670
v 980.563660 7017.327148 -2825.510742
v 964.705200 7017.327148 -2822.354248
v 951.262207 7017.327148 -2813.370117
v 942.278259 7017.327148 -2799.924805
v 939.124268 7017.327148 -2784.071289
v 942.278259 7017.327148 -2768.217773
v 951.262207 7017.327148 -2754.772461
v 964.705200 7017.327148 -2745.788330
v 980.563660 7017.327148 -2742.631836
v 996.422058 7017.327148 -2745.788330
v 1009.865051 7017.327148 -2754.772461
v 1018.849060 7017.327148 -2768.217773
v 1022.002991 7017.327148 -2784.071289
v 1018.849060 7017.327148 -2799.924805
v 1009.865051 7017.327148 -2813.370117
v 996.422058 7017.327148 -2822.354248
v 979.417114 6680.581055 -2614.493164
v 963.558655 6680.581055 -2611.336670
v 950.115662 6680.581055 -2602.352539
v 941.131714 6680.581055 -2588.907227
v 937.977722 6680.581055 -2573.053711
v 941.131714 6680.581055 -2557.200195
v 950.115662 6680.581055 -2543.754883
v 963.558655 6680.581055 -2534.770752
v 979.417114 6680.581055 -2531.614258
v 995.275513 6680.581055 -2534.770752
v 1008.718506 6680.581055 -2543.754883
v 1017.702515 6680.581055 -2557.200195
v 1020.856445 6680.581055 -2573.053711
v 1017.702515 6680.581055 -2588.907227
v 1008.718506 6680.581055 -2602.352539
v 995.275513 6680.581055 -2611.336670
v 980.563660 6680.943848 -2825.510742
v 964.705200 6680.943848 -2822.354248
v 951.262207 6680.943848 -2813.370117
v 942.278259 6680.943848 -2799.924805
v 939.124268 6680.943848 -2784.071289
v 942.278259 6680.943848 -2768.217773
v 951.262207 6680.943848 -2754.772461
v 964.705200 6680.943848 -2745.788330
v 980.563660 6680.943848 -2742.631836
v 996.422058 6680.943848 -2745.788330
v 1009.865051 6680.943848 -2754.772461
v 1018.849060 6680.943848 -2768.217773
v 1022.002991 6680.943848 -2784.071289
v 1018.849060 6680.943848 -2799.924805
v 1009.865051 6680.943848 -2813.370117
v 996.422058 6680.943848 -2822.354248
vt 2.027180 -2.208155
vt 1.882830 0.762830
vt 1.882830 -2.208155
vt -0.261297 -2.211458
vt -0.116901 0.759526
vt -0.116901 -2.211458
vt 1.738479 0.762830
vt 1.738479 -2.208155
vt -0.106462 -2.208155
vt -0.250857 0.762830
vt -0.250857 -2.208155
vt 0.149896 -2.211458
vt 0.027493 0.759526
vt 0.027493 -2.211458
vt -0.106462 -2.208155
vt 0.037933 0.762830
vt 0.037933 -2.208155
vt -0.116901 0.759526
vt -0.116901 -2.211458
vt -0.373259 0.762830
vt -0.373259 -2.208155
vt 1.616056 -2.208155
vt 1.738479 0.762830
vt 1.738479 -2.208155
vt -0.182892 -2.211458
vt -0.305316 0.759526
vt -0.305316 -2.211458
vt 0.037933 -2.208155
vt -0.106462 0.762830
vt -0.038542 -2.211458
vt -0.182892 0.759526
vt 0.160335 -2.208155
vt 0.037933 0.762830
vt 0.105809 -2.211458
vt -0.038542 0.759526
vt 1.616056 0.762830
vt 1.616056 -2.208155
vt 0.228232 -2.211458
vt 0.105809 0.759526
vt -0.261297 -2.211458
vt -0.383699 0.759526
vt -0.383699 -2.211458
vt 1.882830 0.762830
vt 1.882830 -2.208155
vt -0.261297 0.759526
vt 0.027493 0.759526
vt 0.027493 -2.211458
vt 0.105809 -2.211458
vt 0.228232 0.759526
vt 0.228232 -2.211458
vt 2.149603 -2.208155
vt 2.027180 0.762830
vt -0.383699 -2.211458
vt -0.261297 0.759526
vt -0.038542 -2.211458
vt 0.105809 0.759526
vt 0.160335 0.762830
vt 0.160335 -2.208155
vt -0.182892 -2.211458
vt -0.038542 0.759526
vt 2.027180 -2.208155
vt 2.149603 0.762830
vt 2.149603 -2.208155
vt -0.305316 -2.211458
vt -0.182892 0.759526
vt -0.373259 -2.208155
vt -0.250857 0.762830
vt -0.250857 -2.208155
vt 2.027180 0.762830
vt -0.106462 0.762830
vt 0.149896 0.759526
vt 0.149896 -2.211458
vt 0.149896 0.759526
vt 1.616056 0.762830
vt 0.160335 0.762830
vt 0.228232 0.759526
vt 2.149603 0.762830
vt -0.383699 0.759526
vt -0.305316 0.759526
vt -0.373259 0.762830
vn 0.9808 0.0000 -0.1951
vn -0.1952 0.0000 -0.9808
vn 0.9808 0.0000 0.1951
vn -0.1952 0.0000 0.9808
vn 0.5556 0.0000 0.8314
vn 0.1952 0.0000 -0.9808
vn 0.1952 0.0000 0.9808
vn -0.5556 0.0000 0.8314
vn -0.8315 0.0000 0.5556
vn 0.8315 0.0000 0.5556
vn 0.8315 0.0000 -0.5556
vn -0.5557 0.0000 0.8314
vn -0.9808 0.0000 0.1951
vn -0.8315 0.0000 -0.5556
vn -0.5556 0.0000 -0.8314
vn -0.9808 0.0000 -0.1951
vn 0.5556 0.0000 -0.8314
vn 0.0000 -1.0000 0.0000
vn 0.5557 0.0000 -0.8314
vn 0.5557 0.0000 0.8314
vn -0.5557 0.0000 -0.8314
vn 0.0000 -1.0000 0.0001
vn 0.0000 -1.0000 0.0002
vn 0.0000 -1.0000 -0.0001
vn 0.0000 -1.0000 -0.0002
usemtl m17Wood05_v
s off
f 62/1/1 29/2/1 61/3/1
f 34/4/2 1/5/2 33/6/2
f 61/3/3 28/7/3 60/8/3
f 57/9/4 24/10/4 56/11/4
f 43/12/5 10/13/5 42/14/5
f 49/15/6 32/16/6 64/17/6
f 42/14/7 9/18/7 41/19/7
f 56/11/8 23/20/8 55/21/8
f 55/22/9 22/23/9 54/24/9
f 44/25/10 11/26/10 43/27/10
f 58/28/7 25/29/7 57/9/7
f 45/30/3 12/31/3 44/25/3
f 59/32/5 26/33/5 58/28/5
f 46/34/1 13/35/1 45/30/1
f 60/8/10 27/36/10 59/37/10
f 47/38/11 14/39/11 46/34/11
f 40/40/12 7/41/12 39/42/12
f 54/24/13 21/43/13 53/44/13
f 41/19/4 8/45/4 40/40/4
f 33/6/6 16/46/6 48/47/6
f 36/48/14 3/49/14 35/50/14
f 63/51/11 30/52/11 62/1/11
f 35/53/15 2/54/15 34/4/15
f 37/55/16 4/56/16 36/48/16
f 64/17/17 31/57/17 63/58/17
f 38/59/13 5/60/13 37/55/13
f 52/61/14 19/62/14 51/63/14
f 39/64/9 6/65/9 38/59/9
f 51/66/15 18/67/15 50/68/15
f 53/44/16 20/69/16 52/61/16
f 43/12/18 39/64/18 35/53/18
f 59/32/18 55/22/18 51/66/18
f 50/68/2 17/70/2 49/15/2
f 48/47/19 15/71/19 47/72/19
f 62/1/1 30/52/1 29/2/1
f 34/4/2 2/54/2 1/5/2
f 61/3/3 29/2/3 28/7/3
f 57/9/4 25/29/4 24/10/4
f 43/12/20 11/73/20 10/13/20
f 49/15/6 17/70/6 32/16/6
f 42/14/7 10/13/7 9/18/7
f 56/11/8 24/10/8 23/20/8
f 55/22/9 23/74/9 22/23/9
f 44/25/10 12/31/10 11/26/10
f 58/28/7 26/33/7 25/29/7
f 45/30/3 13/35/3 12/31/3
f 59/32/5 27/75/5 26/33/5
f 46/34/1 14/39/1 13/35/1
f 60/8/10 28/7/10 27/36/10
f 47/38/11 15/76/11 14/39/11
f 40/40/8 8/45/8 7/41/8
f 54/24/13 22/23/13 21/43/13
f 41/19/4 9/18/4 8/45/4
f 33/6/6 1/5/6 16/46/6
f 36/48/14 4/56/14 3/49/14
f 63/51/11 31/77/11 30/52/11
f 35/53/21 3/78/21 2/54/21
f 37/55/16 5/60/16 4/56/16
f 64/17/17 32/16/17 31/57/17
f 38/59/13 6/65/13 5/60/13
f 52/61/14 20/69/14 19/62/14
f 39/64/9 7/79/9 6/65/9
f 51/66/15 19/80/15 18/67/15
f 53/44/16 21/43/16 20/69/16
f 35/53/22 34/4/22 47/38/22
f 34/4/23 33/6/23 48/47/23
f 47/38/24 34/4/24 48/47/24
f 47/38/18 46/34/18 43/12/18
f 46/34/18 45/30/18 44/25/18
f 43/12/18 46/34/18 44/25/18
f 43/12/22 42/14/22 40/40/22
f 42/14/25 41/19/25 40/40/25
f 40/40/24 39/64/24 43/12/24
f 39/64/18 38/59/18 36/48/18
f 38/59/18 37/55/18 36/48/18
f 36/48/18 35/53/18 39/64/18
f 35/53/18 47/38/18 43/12/18
f 51/66/18 50/68/18 63/51/18
f 50/68/18 49/15/18 64/17/18
f 63/51/22 50/68/22 64/17/22
f 63/51/18 62/1/18 59/32/18
f 62/1/18 61/3/18 60/8/18
f 59/32/18 62/1/18 60/8/18
f 59/32/24 58/28/24 56/11/24
f 58/28/18 57/9/18 56/11/18
f 56/11/18 55/22/18 59/32/18
f 55/22/18 54/24/18 52/61/18
f 54/24/18 53/44/18 52/61/18
f 52/61/18 51/66/18 55/22/18
f 51/66/18 63/51/18 59/32/18
f 50/68/2 18/67/2 17/70/2
f 48/47/17 16/46/17 15/71/17
