# Blender v2.79 (sub 7) OBJ File: 'actuallywait.blend'
# www.blender.org
mtllib HikeGardenBonusPathStep.mtl
o Plane
v -150.000000 69.677101 150.000000
v 150.000000 69.677101 150.000000
v -150.000000 69.677101 -150.000000
v 150.000000 69.677101 -150.000000
v -150.000000 -68.316063 150.000000
v 150.000000 -68.316063 150.000000
v -150.000000 -68.316063 -150.000000
v 150.000000 -68.316063 -150.000000
vn 0.0000 1.0000 0.0000
vn 0.0000 -1.0000 0.0000
vn 0.0000 0.0000 1.0000
vn 1.0000 0.0000 0.0000
vn -1.0000 0.0000 0.0000
vn 0.0000 0.0000 -1.0000
usemtl None
s off
f 2//1 3//1 1//1
f 7//2 6//2 5//2
f 5//3 2//3 1//3
f 6//4 4//4 2//4
f 7//5 1//5 3//5
f 8//6 3//6 4//6
f 2//1 4//1 3//1
f 7//2 8//2 6//2
f 5//3 6//3 2//3
f 6//4 8//4 4//4
f 7//5 5//5 1//5
f 8//6 7//6 3//6
